<svg width="54" height="56" viewBox="0 0 54 56" fill="none" xmlns="http://www.w3.org/2000/svg">
    <g clip-path="url(#a)" fill="#FF4D4D">
        <path d="M5.291 47.85l5.56-7.36a8.072 8.072 0 0 1-4.398-3.353c-1.31-2.33-.718-5.174-.145-7.921.347-1.412.554-2.855.619-4.31a22.227 22.227 0 0 0-.619-4.312c-.569-2.749-1.165-5.591.145-7.918 1.356-2.412 4.086-3.305 6.727-4.167a19.239 19.239 0 0 0 3.799-1.531 18.678 18.678 0 0 0 3.044-2.54C21.982 2.564 24.203.445 27.03.445c2.828 0 5.05 2.12 7.01 3.99a18.683 18.683 0 0 0 3.042 2.542 19.234 19.234 0 0 0 3.798 1.528c2.64.861 5.371 1.754 6.727 4.166 1.31 2.33.718 5.175.145 7.922a22.229 22.229 0 0 0-.618 4.313c.065 1.455.272 2.9.618 4.312.57 2.75 1.166 5.592-.144 7.918a8.072 8.072 0 0 1-4.403 3.352l5.565 7.36a.96.96 0 0 1-.161 1.32.895.895 0 0 1-.675.191l-6.533-.84-1.613 5.81a.925.925 0 0 1-.878.683.905.905 0 0 1-.722-.363l-5.836-7.728a8.34 8.34 0 0 1-5.322 2.446 8.34 8.34 0 0 1-5.322-2.446l-5.835 7.725a.905.905 0 0 1-.896.349.925.925 0 0 1-.704-.665l-1.613-5.81-6.534.84a.92.92 0 0 1-1.02-.816.961.961 0 0 1 .185-.695zm33.235 4.181l1.333-4.803a.914.914 0 0 1 .992-.675l5.117.659-4.587-6.07-.505.166a19.233 19.233 0 0 0-3.794 1.528 18.677 18.677 0 0 0-3.044 2.54l-.314.3 4.802 6.355zM27.03 47.486c2.111 0 3.887-1.693 5.767-3.488a20.262 20.262 0 0 1 3.371-2.792 20.83 20.83 0 0 1 4.16-1.693c2.416-.79 4.698-1.535 5.7-3.316.955-1.703.462-4.074-.062-6.586a23.678 23.678 0 0 1-.66-4.704c.062-1.588.283-3.164.66-4.704.523-2.511 1.016-4.883.06-6.586-1.005-1.782-3.283-2.527-5.698-3.316a20.841 20.841 0 0 1-4.16-1.694 20.257 20.257 0 0 1-3.37-2.791c-1.881-1.795-3.657-3.489-5.768-3.489-2.11 0-3.886 1.694-5.767 3.489a20.266 20.266 0 0 1-3.37 2.791 20.835 20.835 0 0 1-4.161 1.694c-2.415.789-4.697 1.534-5.698 3.316-.956 1.702-.463 4.074.06 6.586.378 1.54.599 3.116.66 4.704a23.667 23.667 0 0 1-.658 4.704c-.524 2.51-1.017 4.883-.062 6.585 1.006 1.782 3.284 2.528 5.699 3.317 1.44.412 2.835.98 4.16 1.693a20.256 20.256 0 0 1 3.37 2.792c1.881 1.795 3.656 3.488 5.767 3.488zm-13.824-.933a.914.914 0 0 1 .991.675l1.338 4.803 4.801-6.355-.314-.3a18.686 18.686 0 0 0-3.043-2.54 19.238 19.238 0 0 0-3.798-1.528l-.505-.167-4.588 6.07 5.118-.658z"/>
        <path d="M14.468 20.363a2.158 2.158 0 0 1 1.76-.923h6.665l2.069-6.532c.375-1.176 1.606-1.816 2.748-1.43a2.21 2.21 0 0 1 1.389 1.43l2.063 6.532h6.671c1.203 0 2.178 1.002 2.179 2.24 0 .718-.333 1.392-.897 1.814L33.72 27.53l2.06 6.532c.373 1.177-.253 2.442-1.397 2.825a2.126 2.126 0 0 1-1.954-.319l-5.399-4.034-5.397 4.035c-.76.582-1.8.582-2.56 0a2.246 2.246 0 0 1-.791-2.506l2.061-6.533-5.396-4.036c-.972-.728-1.187-2.13-.479-3.131zm7.796 5.833c.381.286.541.792.395 1.254l-2.306 7.307 6.037-4.515a1.064 1.064 0 0 1 1.28 0l6.036 4.515-2.304-7.307a1.14 1.14 0 0 1 .395-1.253l6.036-4.515h-7.461c-.472 0-.89-.313-1.036-.775l-2.306-7.306-2.306 7.305a1.092 1.092 0 0 1-1.035.775h-7.462l6.037 4.515z"/>
    </g>
    <defs>
        <clipPath id="a">
            <path fill="#fff" transform="matrix(-1 0 0 1 53.53 .446)" d="M0 0h53v54.567H0z"/>
        </clipPath>
    </defs>
</svg>
