<svg width="57" height="52" viewBox="0 0 57 52" fill="none" xmlns="http://www.w3.org/2000/svg">
    <path d="M51.048.503H14.836c-3.143 0-5.7 2.532-5.7 5.636l-.233 31.886H1.836c-.5 0-.883.443-.883.944v4.388c0 4.108 3.288 7.467 7.255 7.652v.052h30.494v-.06c.227.01.364.06.52.06h.022a7.666 7.666 0 0 0 7.62-7.705v-27.89h9.206c.5 0 .883-.453.883-.954V6.461A5.948 5.948 0 0 0 51.048.503zM8.605 49.248h-.006c-3.226 0-5.832-2.667-5.832-5.892v-3.517H31.56v3.502a7.676 7.676 0 0 0 2.241 5.446c.153.154.313.234.477.46H8.605zm36.445-5.893c0 3.226-2.58 5.893-5.808 5.893h-.018a5.892 5.892 0 0 1-5.85-5.907v-4.373a.94.94 0 0 0-.907-.943h-21.75l.233-31.88c0-2.11 1.743-3.829 3.886-3.829h31.93C45.733 3.45 45.05 4.884 45.05 6.485v36.87zM55.14 6.477v7.175h-8.276V6.483c0-2.27 1.888-4.167 4.157-4.167h.025A4.134 4.134 0 0 1 55.14 6.47v.007z" fill="#FF4D4D"/>
    <path d="M21.801 27.448l5.434 3.715c.355.245.824.245 1.178 0l5.418-3.714c1.882-1.284 3.272-3.968 3.272-6.245v-7.517a1.03 1.03 0 0 0-.562-.946l-8.274-4.07a1.036 1.036 0 0 0-.921 0l-8.259 4.059c-.354.18-.573.549-.56.946v7.528c0 2.277 1.392 4.961 3.274 6.244zm-1.167-13.114l7.18-3.543 7.181 3.553v6.86c0 1.588-1.04 3.608-2.353 4.503l-4.84 3.31-4.82-3.31c-1.313-.896-2.348-2.915-2.348-4.503v-6.87z" fill="#FF4D4D"/>
    <path d="M26.032 22.796c.197.2.465.314.746.316h.003c.28-.001.548-.113.745-.312l4.193-4.195a1.054 1.054 0 0 0-1.49-1.492l-3.444 3.444-1.377-1.39a1.054 1.054 0 1 0-1.498 1.485l2.122 2.144z" fill="#FF4D4D"/>
</svg>
