<svg width="59" height="58" viewBox="0 0 59 58" fill="none" xmlns="http://www.w3.org/2000/svg">
    <path d="M44.396 38.743c0 4.824-2.948 11.524-13.869 12.06l-2.144.067c-6.633-.201-11.792-3.15-14.874-7.102l1.742-1.541c2.613 3.216 7.035 6.365 13.132 6.633h2.144c9.112-.536 11.524-6.097 11.524-10.117 0-6.633-5.494-8.777-11.524-10.586l-2.144-.603c-6.767-1.876-13.467-3.886-13.467-11.524 0-7.035 6.298-11.19 13.467-11.39l2.144.067c5.695.335 9.983 2.68 12.864 6.23l-1.675 1.542c-2.814-3.618-6.7-5.427-11.189-5.762l-2.144-.067c-6.23.2-11.122 4.087-11.122 9.38 0 5.628 5.226 7.437 11.122 9.179l2.144.603c6.901 2.01 13.87 4.489 13.87 12.93z" fill="#E44E4E"/>
    <path d="M25.407.416v56.732M31.826.416v56.732" stroke="#E44E4E" stroke-width="2"/>
    <circle cx="54.997" cy="7.004" r="2.502" stroke="#E44E4E" stroke-width="2"/>
    <circle cx="4.077" cy="7.004" r="2.502" stroke="#E44E4E" stroke-width="2"/>
    <circle cx="54.997" cy="49.87" r="2.502" stroke="#E44E4E" stroke-width="2"/>
    <circle cx="4.077" cy="49.87" r="2.502" stroke="#E44E4E" stroke-width="2"/>
</svg>
