<svg width="45" height="46" viewBox="0 0 45 46" fill="none" xmlns="http://www.w3.org/2000/svg">
    <path d="M20.8 1.486a2 2 0 0 1 2.592 0l2.135 1.817a2 2 0 0 0 1.792.415l2.687-.688a2 2 0 0 1 2.322 1.123l1.176 2.635a2 2 0 0 0 1.413 1.142l2.759.582a2 2 0 0 1 1.586 1.998l-.06 2.957a2 2 0 0 0 .768 1.617l2.289 1.788a2 2 0 0 1 .56 2.465l-1.318 2.657a2 2 0 0 0 0 1.778l1.318 2.657a2 2 0 0 1-.56 2.465l-2.289 1.788a2 2 0 0 0-.768 1.617l.06 2.957a2 2 0 0 1-1.586 1.998l-2.759.582a2 2 0 0 0-1.413 1.142l-1.175 2.636a2 2 0 0 1-2.323 1.122l-2.687-.687a2 2 0 0 0-1.792.414l-2.135 1.817a2 2 0 0 1-2.593 0l-2.134-1.817a2 2 0 0 0-1.793-.414l-2.687.687a2 2 0 0 1-2.322-1.122l-1.176-2.636a2 2 0 0 0-1.413-1.142l-2.759-.582a2 2 0 0 1-1.586-1.998l.06-2.957a2 2 0 0 0-.768-1.617l-2.289-1.788a2 2 0 0 1-.56-2.465l1.318-2.657a2 2 0 0 0 0-1.778l-1.318-2.657a2 2 0 0 1 .56-2.465l2.289-1.788a2 2 0 0 0 .768-1.617l-.06-2.957a2 2 0 0 1 1.586-1.998l2.759-.582a2 2 0 0 0 1.413-1.142l1.176-2.635a2 2 0 0 1 2.322-1.123l2.687.688a2 2 0 0 0 1.793-.415l2.134-1.817z" stroke="#F13D3D" stroke-linecap="round" stroke-linejoin="round"/>
    <path d="M11.096 17.461l.694.995 2.85-2.203V31.17h1.29V14.454h-.892l-3.942 3.007zM26.146 22.03c-1.587 0-3.223-1.373-3.223-3.196 0-2.012 1.686-3.22 3.57-3.22 1.86 0 3.644 1.16 3.644 3.22 0 1.823-1.636 3.197-3.223 3.197h-.768zm.744 1.232c2.082 0 3.842 1.255 3.842 3.41 0 2.13-1.834 3.48-4.214 3.48-2.306 0-4.19-1.444-4.19-3.48 0-1.966 1.81-3.41 3.917-3.41h.645zm-.348 8.121c2.926 0 5.554-1.681 5.554-4.593 0-2.202-1.537-3.86-3.595-4.12v-.071c1.884-.64 3-2.297 3-3.907 0-2.604-2.256-4.309-4.983-4.309s-4.959 1.705-4.959 4.31c0 1.751 1.265 3.456 2.926 3.93v.07c-2.132.474-3.52 2.203-3.52 4.191 0 2.818 2.652 4.5 5.578 4.5z" fill="#F13D3D"/>
    <path d="M11.096 17.461l.694.995 2.85-2.203V31.17h1.29V14.454h-.892l-3.942 3.007zM26.146 22.03c-1.587 0-3.223-1.373-3.223-3.196 0-2.012 1.686-3.22 3.57-3.22 1.86 0 3.644 1.16 3.644 3.22 0 1.823-1.636 3.197-3.223 3.197h-.768zm.744 1.232c2.082 0 3.842 1.255 3.842 3.41 0 2.13-1.834 3.48-4.214 3.48-2.306 0-4.19-1.444-4.19-3.48 0-1.966 1.81-3.41 3.917-3.41h.645zm-.348 8.121c2.926 0 5.554-1.681 5.554-4.593 0-2.202-1.537-3.86-3.595-4.12v-.071c1.884-.64 3-2.297 3-3.907 0-2.604-2.256-4.309-4.983-4.309s-4.959 1.705-4.959 4.31c0 1.751 1.265 3.456 2.926 3.93v.07c-2.132.474-3.52 2.203-3.52 4.191 0 2.818 2.652 4.5 5.578 4.5z" stroke="#F13D3D"/>
</svg>
