<svg width="94" height="101" viewBox="0 0 94 101" fill="none" xmlns="http://www.w3.org/2000/svg">
    <path d="M13.962 67.087C7.502 53.827 4.418 37.95 2 19.393L46.788 2l44.787 17.393c-2.418 18.557-5.502 34.433-11.962 47.694-6.487 13.316-16.428 24.09-32.825 32.171-16.397-8.08-26.339-18.855-32.826-32.171z" stroke="#fff" stroke-width="3"/>
    <mask id="a" maskUnits="userSpaceOnUse" x="8" y="9" width="77" height="83">
        <path fill-rule="evenodd" clip-rule="evenodd" d="M8.866 24.182c2.048 15.712 4.66 29.154 10.129 40.382 5.492 11.275 13.91 20.398 27.793 27.24 13.883-6.842 22.3-15.965 27.793-27.24 5.47-11.228 8.08-24.67 10.128-40.382L46.788 9.455 8.866 24.182z" fill="#fff"/>
        <path d="M18.995 64.564c-5.47-11.228-8.081-24.67-10.129-40.382L46.788 9.455l37.921 14.727c-2.047 15.712-4.659 29.154-10.128 40.382-5.492 11.275-13.91 20.398-27.793 27.24-13.884-6.842-22.301-15.965-27.793-27.24z" fill="#fff"/>
    </mask>
    <g mask="url(#a)" fill="#fff">
        <path d="M36.535 89.43c-.439-.214-.839-.39-1.216-.6-.404-.228-.772-.526-1.185-.731-1.305-.656-1.793-1.685-1.588-3.114.095-.656.03-1.331.085-1.997.068-.815-.013-1.555-.654-2.159-.114-.107-.189-.383-.134-.526.684-1.789 1.39-3.565 2.096-5.348.026-.068.081-.13.163-.246.77.691 1.526 1.35 2.251 2.042.117.114.124.367.137.562.081 1.146.166 2.295.215 3.445.023.516.315.837.625 1.191.162.185.312.49.28.718-.303 2.156-.645 4.305-.974 6.458-.01.055-.035.11-.1.305zM30.259 79.277c-.79-.763-1.572-1.494-2.317-2.257-.143-.146-.212-.438-.195-.652.11-1.39.283-2.773.364-4.163.023-.393-.211-.792-.293-1.198-.045-.23-.12-.546-.013-.708 1.055-1.6 2.145-3.176 3.284-4.845.67.9 1.265 1.676 1.828 2.478.085.117.043.344.013.516-.172 1.075-.322 2.156-.55 3.221-.114.536.088.925.326 1.354.107.195.175.507.094.695-.771 1.776-1.575 3.536-2.372 5.302-.033.072-.088.133-.17.257zM30.138 56.194c.472.984.882 1.793 1.24 2.624.072.166-.01.428-.084.623-.371.962-.742 1.92-1.159 2.86-.208.472-.163.88.026 1.335.078.189.104.51-.003.65-1.214 1.584-2.457 3.143-3.732 4.757-.593-.867-1.204-1.74-1.78-2.634-.088-.136-.072-.39-.017-.561.39-1.254.824-2.49 1.195-3.747.1-.341.11-.744.039-1.095-.088-.444-.091-.766.293-1.11 1.327-1.188 2.61-2.416 3.982-3.702zM31.017 47.145c.254 1.007.488 1.883.68 2.766.036.163-.068.387-.166.543-.576.902-1.19 1.78-1.74 2.695a1.516 1.516 0 0 0-.18.945c.082.506-.075.802-.472 1.117-1.187.941-2.333 1.938-3.491 2.912-.212.179-.417.367-.696.614-.437-1.04-.853-1.994-1.227-2.965-.059-.15.032-.393.123-.552.609-1.071 1.263-2.114 1.846-3.201.195-.364.211-.822.312-1.234.052-.218.039-.542.176-.633 1.571-1.007 3.172-1.98 4.835-3.007zM25.524 48.519c-.205-1.066-.416-2.082-.579-3.108-.023-.152.15-.364.273-.506.716-.822 1.416-1.663 2.18-2.436.424-.425.67-.873.746-1.458.023-.181.166-.441.315-.5 1.67-.649 3.355-1.263 5.119-1.919.055 1.023.12 1.936.136 2.848.004.16-.175.348-.309.484-.63.653-1.259 1.305-1.916 1.929-.407.383-.605.815-.645 1.373-.016.224-.198.526-.396.636-1.527.867-3.076 1.699-4.618 2.536-.062.036-.137.056-.306.12zM37.772 30.715c-.166 1.03-.303 1.939-.475 2.838-.026.143-.225.267-.364.367-.661.468-1.318.939-1.995 1.383-.57.374-1.094.757-1.149 1.52-.01.127-.15.312-.27.347-1.77.556-3.543 1.091-5.369 1.647 0-1.036-.016-2.056.016-3.075.004-.156.205-.335.352-.451.908-.708 1.845-1.38 2.733-2.114.319-.267.52-.672.778-1.013.136-.179.25-.48.416-.513 1.741-.332 3.489-.62 5.327-.936zM43.444 23.676c-.4 1.023-.73 1.906-1.1 2.77-.065.15-.313.234-.492.318-.712.335-1.421.682-2.15.977-.648.26-1.175.601-1.39 1.312-.036.114-.218.244-.345.26-1.724.214-3.449.412-5.177.61-.055.007-.117-.013-.28-.035.222-.988.427-1.958.674-2.923.042-.159.25-.311.416-.396 1.058-.549 2.138-1.052 3.18-1.633.344-.192.585-.565.888-.844.166-.153.351-.396.53-.4 1.712-.026 3.427-.016 5.246-.016zM20.227 45.126c.657.071 1.334.142 2.01.224.095.01.222.055.264.126.43.721.947 1.413 1.234 2.189.341.919.504 1.909.69 2.88.055.282.003.64-.13.893-.521 1-1.09 1.974-1.683 3.026-.472-.435-.96-.802-1.34-1.26-.495-.588-1.218-.474-1.81-.73-.17-.075-.403-.322-.384-.455.332-2.253.697-4.5 1.058-6.747.006-.04.042-.072.09-.146zM23.24 65.292c-.482-.292-.908-.526-1.308-.795-.478-.325-.96-.565-1.575-.513-.146.013-.433-.23-.456-.387-.315-2.214-.595-4.432-.891-6.65-.052-.39.1-.568.488-.568.039 0 .081-.01.12-.01.557-.019 1.273-.262 1.64-.01.755.524 1.5 1.14 1.855 2.095.329.887.79 1.724 1.184 2.588.072.16.17.36.127.506-.374 1.228-.774 2.452-1.184 3.744zM39.132 83.407c.921.533 1.836 1.046 2.727 1.594.143.088.202.335.264.517.41 1.224.797 2.454 1.227 3.672.087.247.28.539.5.64.834.38.957 1.11 1.09 2-.881-.15-1.724-.23-2.528-.448-1.226-.328-2.434-.734-3.637-1.143-.173-.059-.4-.338-.388-.494.192-2.03.42-4.052.645-6.078.01-.078.058-.15.1-.26zM24.154 43.992c-.807-1.042-1.295-2.357-2.886-2.565.465-1.1.846-2.11 1.308-3.084.517-1.091 1.116-2.143 1.663-3.221.16-.315.342-.354.677-.257.572.166.95.426 1.194 1.03.335.821.54 1.63.475 2.513-.03.38-.081.785.016 1.143.313 1.142-.166 1.951-.956 2.708-.524.513-.963 1.12-1.49 1.733zM20.822 67.925c.726-.399 1.305-.435 1.969.036.647.458 1.262.896 1.712 1.575.497.757 1.083 1.458 1.623 2.189.091.123.208.282.199.418-.088 1.341-.202 2.682-.31 4.03-1.07-.11-1.854-.458-2.368-1.49-1.084-2.189-2.067-4.41-2.825-6.758zM50.791 18.013c-.755.86-1.38 1.591-2.027 2.3-.094.103-.286.123-.44.162-1.027.282-2.072.529-3.084.866-.31.101-.527.458-.8.682-.16.13-.345.345-.511.335-1.732-.091-3.463-.218-5.236-.335.039-.441.189-.789.622-.993 2.05-.958 4.129-1.832 6.394-2.172 1.636-.244 3.263-.54 5.082-.845zM27.704 34.174l-1.158-2.647c1.425-1.578 2.948-3.26 4.468-4.942.084.033.172.069.257.101.026.546.127 1.1.062 1.633a31.78 31.78 0 0 1-.547 2.971c-.068.299-.257.63-.488.828-.83.702-1.702 1.354-2.594 2.056zM26.201 80.063c1.308-.877 1.308-.877 2.366.178.543.543 1.103 1.069 1.63 1.627.143.153.27.4.267.6-.023.806-.098 1.608-.153 2.416-.745-.23-3.257-3.175-4.11-4.821zM45.822 90.45c.375.052.67.071.95.136.414.094.814.276 1.227.325.846.104 1.133.714 1.468 1.507-1.116-.147-2.128-.264-3.13-.426-.127-.02-.264-.266-.31-.432-.09-.321-.127-.662-.205-1.11zM36.428 22.413c.186 1.052.183 1.052-.647 1.487-.87.455-1.735.912-2.617 1.377-.026-.455 2.073-2.28 3.264-2.864zM56.47 79.066c.677.49 1.188.906 1.738 1.257 4.435 2.821 9.183 2.558 13.354-.757 2.925-2.325 4.855-5.38 6.339-8.747.237-.536.426-1.091.67-1.624.069-.15.257-.34.394-.344 1.698-.023 3.4-.016 5.213-.016-.208.77-.378 1.484-.592 2.182-1.263 4.085-2.939 7.984-5.34 11.546-2.268 3.36-5.001 6.24-8.633 8.166-2.08 1.1-4.289 1.809-6.654 1.877-1.92.055-3.843.042-5.766.026-1.305-.013-2.33-.585-3.075-1.698.104-.075.208-.15.403-.286-.459-.195-.895-.565-1.246-.497-.996.189-1.874-.042-2.76-.425-.315-.136-.627-.302-.96-.37-1.141-.234-1.652-1.004-1.926-2.052-.188-.718-.468-1.413-.725-2.176l1.132-.107c-.472-.662-.895-1.266-1.334-1.857a.409.409 0 0 0-.306-.143c-1.454.114-2.483-.79-3.635-1.448-.862-.494-1.275-1.133-1.275-2.117 0-.76-.107-1.517-.172-2.332.787.101 1.477.189 2.251.286-.367-.919-.703-1.753-1.035-2.581-1.213.565-2.203.104-3.09-.633-.668-.556-1.263-1.195-1.865-1.822-.137-.143-.27-.386-.25-.568.11-1.059.27-2.11.419-3.218 1.064.175 1.975.997 3.081.445-.192-.919-.38-1.818-.576-2.747-.14.03-.234.049-.328.071-.498.11-1.054.413-1.487.29-.84-.24-1.647-.663-2.106-1.517a5.573 5.573 0 0 0-.79-1.146c-.638-.692-.638-1.396-.248-2.205.313-.65.534-1.34.807-2.045 1.094.578 2.015 1.49 3.43.993-.046-.84-.091-1.734-.143-2.708-.625.065-1.198.133-1.773.175-.166.014-.375 0-.502-.087-.745-.52-1.506-1.026-1.767-1.987a3.072 3.072 0 0 0-.38-.887c-.658-.996-.41-1.87.27-2.737.358-.455.64-.964.992-1.5.937.906 1.787 1.841 3.228 1.66l.199-2.686c-.45-.036-.846-.062-1.243-.1-.83-.082-1.836-.88-2.044-1.69a42.659 42.659 0 0 1-.595-2.779c-.033-.181.052-.444.175-.587.635-.73 1.299-1.435 1.989-2.185.748.77 1.103 1.935 2.395 2.042.162-.831.328-1.675.494-2.536-.094-.042-.163-.084-.237-.107-.596-.172-1.178-.29-1.468-.99-.231-.562-.52-1.069-.475-1.712.058-.86-.202-1.854.15-2.555.338-.682 1.275-1.068 1.949-1.581.16-.12.325-.23.537-.374.302.627.589 1.215.94 1.939.296-.854.57-1.559.774-2.283.056-.198-.065-.47-.162-.682-.417-.893-.358-1.802-.127-2.72.026-.098.072-.195.072-.293.013-1.25.676-1.987 1.825-2.373a16.6 16.6 0 0 0 1.497-.608c.127-.058.215-.21.309-.33 1.067-1.368 1.75-2.943 2.45-4.508.091-.2.267-.477.446-.513 1.38-.266 2.424-1.117 3.547-1.87.914-.617 1.822-1.175 2.297-2.227.065-.143.3-.28.469-.299 5.076-.65 9.934-.084 14.395 2.624 2.965 1.798 5.418 4.153 7.52 6.883 3.094 4.017 5.242 8.514 6.68 13.358.04.13.052.266.098.497h-.706c-1.497.003-2.994-.013-4.487.016-.466.01-.57-.263-.697-.594a28.46 28.46 0 0 0-.618-1.484c-.953-2.13-2.157-4.117-3.703-5.9-1.49-1.717-3.215-3.133-5.346-3.993-3.726-1.504-7.22-.936-10.484 1.276-.899.607-1.706 1.354-2.623 2.006.491-.665.96-1.35 1.48-1.993 1.328-1.634 2.848-3.04 4.813-3.89 2.044-.883 4.106-.977 6.19-.137.142.059.292.104.451.101-2.128-1.299-4.39-1.873-6.862-1.195-2.242.617-4.012 1.971-5.545 3.66-2.639 2.912-4.337 6.35-5.623 10.023-1.295 3.701-1.903 7.53-2.317 11.42-.553 5.227-.029 10.377 1.025 15.468 1.084 5.218 2.92 10.166 6.3 14.407 1.637 2.052 3.547 3.773 6.078 4.666 2.506.883 4.823.325 7.02-1.023-.111.03-.225.052-.33.09-2.909 1.124-5.564.524-8.033-1.204-1.422-.997-2.584-2.26-3.6-3.66-.048-.087-.084-.171-.22-.405z"/>
        <path d="M66.227 90.73c-2.08 1.1-4.289 1.808-6.655 1.876-1.92.055-3.843.042-5.766.026-1.304-.013-2.33-.585-3.075-1.698.105-.075.209-.15.404-.286-.459-.195-.895-.565-1.246-.497-.996.189-1.875-.042-2.76-.425-.315-.137-.628-.302-.96-.37-1.142-.234-1.653-1.004-1.926-2.052-.189-.718-.468-1.413-.726-2.176l1.133-.107c-.472-.662-.895-1.266-1.334-1.857a.409.409 0 0 0-.306-.143c-1.455.113-2.483-.79-3.635-1.448-.862-.494-1.275-1.133-1.275-2.117 0-.76-.108-1.517-.173-2.332.788.101 1.477.189 2.252.286l-1.035-2.581c-1.214.565-2.203.104-3.091-.633-.667-.556-1.263-1.195-1.865-1.822-.136-.143-.27-.386-.25-.568.11-1.059.27-2.11.42-3.218 1.064.175 1.975.997 3.081.445-.192-.919-.38-1.818-.576-2.747l-.028.006c-.125.026-.213.044-.3.065-.498.11-1.055.413-1.488.29-.84-.24-1.646-.663-2.105-1.517a5.573 5.573 0 0 0-.79-1.146c-.638-.692-.638-1.396-.248-2.205.312-.65.534-1.34.807-2.046 1.093.579 2.014 1.49 3.43.994-.046-.84-.091-1.734-.143-2.708-.625.065-1.198.133-1.774.175-.166.014-.374 0-.501-.087-.745-.52-1.507-1.026-1.767-1.987a3.07 3.07 0 0 0-.38-.887c-.658-.997-.41-1.87.27-2.737.357-.455.64-.964.992-1.5.937.906 1.786 1.841 3.228 1.66l.198-2.686c-.449-.036-.846-.062-1.243-.1-.83-.082-1.835-.88-2.043-1.69a42.658 42.658 0 0 1-.596-2.779c-.032-.181.052-.444.176-.587.635-.73 1.298-1.435 1.988-2.185.749.77 1.103 1.935 2.395 2.042.163-.831.329-1.676.495-2.536-.095-.042-.163-.084-.238-.107-.595-.172-1.178-.29-1.467-.99-.231-.562-.52-1.069-.475-1.712.058-.86-.202-1.854.15-2.555.338-.682 1.275-1.068 1.948-1.581.16-.12.326-.23.537-.374l.94 1.939c.297-.854.57-1.559.775-2.283.055-.198-.065-.47-.163-.682-.416-.893-.357-1.802-.127-2.72.027-.098.072-.195.072-.293.013-1.25.677-1.987 1.826-2.373.51-.172 1.005-.387 1.496-.608.127-.058.215-.21.31-.33 1.067-1.368 1.75-2.943 2.45-4.508.09-.2.267-.477.446-.513 1.38-.266 2.424-1.117 3.546-1.87.915-.617 1.823-1.175 2.298-2.227.065-.143.299-.28.468-.299 5.076-.65 9.935-.084 14.396 2.623l-8.295 4.952c-2.242.617-4.012 1.971-5.544 3.66-2.64 2.912-4.338 6.35-5.623 10.023-1.295 3.701-1.904 7.53-2.317 11.42-.553 5.227-.03 10.377 1.025 15.468 1.084 5.218 2.919 10.166 6.3 14.407 1.636 2.052 3.547 3.773 6.078 4.666l7.979 5.461zM83.862 70.585l-5.2-1.331c4.377-17.008.026-28.015-.016-28.126l4.962-2.042c.212.507 5.106 12.64.254 31.499z"/>
        <path d="M65.214 59.613c1.869 0 3.384-2.12 3.384-4.737 0-2.616-1.515-4.737-3.384-4.737-1.87 0-3.384 2.12-3.384 4.737s1.515 4.737 3.384 4.737zM59.197 59.727c.511-.873.098-1.591-.914-1.591h-5.724c-1.015 0-1.715.818-1.552 1.818l1.874 7.832c.326.958 1.009 1.03 1.52.153l4.796-8.212zM58.283 51.645c1.015 0 1.425-.714.914-1.59l-4.796-8.212c-.51-.874-1.194-.806-1.52.152l-1.874 7.832c-.16 1 .537 1.818 1.552 1.818h5.724zM61.878 45.467c.511.873.931.763.931-.25v-12.43c0-1.013-.752-1.487-1.67-1.055l-3.68 2.633c-.719.715-.888 2.013-.377 2.89l4.796 8.212zM68.266 31.732c-.918-.432-1.67.042-1.67 1.055v12.43c0 1.013.417 1.126.931.25l4.796-8.212c.511-.873.342-2.175-.377-2.89l-3.68-2.633zM62.806 64.565c0-1.013-.417-1.127-.93-.25l-4.797 8.211c-.51.874-.342 2.176.377 2.89l3.68 2.633c.918.432 1.67-.042 1.67-1.055v-12.43zM67.527 64.315c-.51-.873-.93-.763-.93.25v12.43c0 1.013.751 1.487 1.669 1.055l3.68-2.633c.72-.715.888-2.014.377-2.89l-4.796-8.212zM70.205 50.057c-.51.874-.097 1.592.915 1.592h5.723c1.016 0 1.715-.819 1.552-1.819L76.522 42c-.325-.958-1.008-1.03-1.52-.153l-4.796 8.212zM71.123 58.136c-1.015 0-1.425.714-.914 1.591l4.796 8.212c.51.873 1.194.805 1.52-.153l1.874-7.832c.16-1-.537-1.818-1.552-1.818h-5.724z"/>
    </g>
</svg>
