<svg width="33" height="23" viewBox="0 0 33 23" fill="none" xmlns="http://www.w3.org/2000/svg">
    <path fill-rule="evenodd" clip-rule="evenodd" d="M32.489 12.727c0 2.63-.325 5.26-.325 5.26s-.317 2.237-1.292 3.224c-1.234 1.294-2.619 1.3-3.255 1.375-4.546.329-11.373.339-11.373.339s-8.447-.077-11.046-.325c-.723-.136-2.347-.096-3.582-1.389-.974-.987-1.291-3.224-1.291-3.224S0 15.357 0 12.726v-2.465c0-2.63.325-5.257.325-5.257s.317-2.24 1.291-3.226C2.851.485 4.236.479 4.871.404 9.418.075 16.238.075 16.238.075h.012s6.821 0 11.367.329c.636.075 2.02.081 3.255 1.375.975.987 1.292 3.226 1.292 3.226s.325 2.628.325 5.257v2.465z" fill="#F13D3D"/>
    <path fill-rule="evenodd" clip-rule="evenodd" d="M12.89 15.714l8.778-4.548-8.78-4.581.002 9.13z" fill="#fff"/>
</svg>
