<svg xmlns="http://www.w3.org/2000/svg"><defs>
        <style>
            .a{fill:#909090}
        </style>
    
        <style>
            .cls-1{fill:#0a0a0d}
        </style>
    
        <style>
            .a{fill:#fff}
        </style>
    
        <clipPath id="a">
            <path transform="translate(0 .844)" d="M0 0h20v19H0z"/>
        </clipPath>
    </defs><symbol id="arr-down" viewBox="0 0 16.391272 9.1562395">
    <path d="M.685.729l7.51 7.055L15.708.73" stroke-width="2"/>
</symbol><symbol id="arr-next" viewBox="0 0 16.385004 13.580906">
    <path d="M9.56.703l6.114 6.181m0 0l-6.113 5.982m6.113-5.982H0" stroke-width="2"/>
</symbol><symbol id="arr-prev" viewBox="0 0 16.384983 13.580911">
    <path d="M6.824.703L.711 6.884m0 0l6.113 5.982M.711 6.884h15.674" stroke-width="2"/>
</symbol><symbol id="icon-call" viewBox="0 0 18.000267 21.993021">
    <path d="M12.68 14.702c-.234-.522-.6-.886-1.06-1.048-.455-.16-.957-.107-1.456.156l-1.56.82c-.079-.09-.159-.174-.235-.258-.111-.117-.216-.228-.301-.336-.864-1.122-1.557-2.431-2.12-4.008-.268-.78-.414-1.41-.473-2.018.396-.186.774-.392 1.14-.588.139-.073.278-.15.417-.223 1.037-.547 1.373-1.61.855-2.706L7.214 3.07c-.076-.161-.155-.328-.227-.492a19.9 19.9 0 0 0-.466-.973C6.281 1.102 5.914.75 5.463.592 5.01.432 4.51.478 4.022.722l-.01.006-1.683.897A2.953 2.953 0 0 0 .951 3.16C.5 4.27.483 5.446.507 6.228c.06 1.92.455 3.82 1.255 5.988.975 2.617 2.416 4.92 4.285 6.844.717.726 1.694 1.631 2.937 2.165.076.032.156.064.23.09.856.302 1.676.23 2.443-.216.006-.006.015-.008.021-.014.27-.179.563-.323.872-.48.21-.104.426-.214.64-.334.495-.274.836-.675.988-1.156.153-.485.104-1.02-.146-1.542zm.024 4.584c-.005.003-.004 0 0 0-.197.114-.392.21-.603.318a10.11 10.11 0 0 0-.962.53c-.507.29-1.01.335-1.588.131-.056-.02-.115-.04-.17-.064-1.076-.462-1.954-1.276-2.598-1.933-1.757-1.81-3.116-3.98-4.036-6.448-.754-2.052-1.128-3.835-1.183-5.628-.037-1.095.077-1.898.36-2.594.18-.444.467-.765.877-.98l1.685-.889c.238-.116.461-.146.65-.08.233.083.375.298.454.465l.008.016c.155.302.297.609.445.935.075.165.154.332.231.503l.674 1.424c.261.553.14.936-.384 1.212-.143.076-.282.152-.424.224-.418.227-.813.435-1.231.626-.01.006-.019.007-.025.013-.425.224-.47.574-.473.82v.04c.05.764.22 1.528.544 2.482l.003.005c.601 1.69 1.35 3.106 2.288 4.319.12.155.25.292.373.422.111.117.216.228.301.337.012.013.023.03.036.043.105.11.213.184.335.227.308.108.565-.027.648-.072l1.69-.89c.167-.089.418-.179.651-.096.23.08.37.3.443.473l.005.01 1.36 2.874c.254.534.124.944-.384 1.225zM10.532 6.086c.916.514 1.644 1.31 2.112 2.301.469.991.63 2.082.473 3.165a.556.556 0 0 0 .354.612c.03.01.056.016.087.022.289.05.557-.16.604-.465a6.673 6.673 0 0 0-.57-3.83c-.566-1.194-1.45-2.158-2.557-2.783a.516.516 0 0 0-.714.226c-.138.269-.048.609.211.752zM17.383 12.688a10.98 10.98 0 0 0-.94-6.307c-.932-1.972-2.387-3.554-4.21-4.584a.511.511 0 0 0-.71.228.575.575 0 0 0 .219.755c1.627.917 2.928 2.336 3.763 4.095a9.802 9.802 0 0 1 .839 5.638.556.556 0 0 0 .354.611c.03.01.056.016.087.022.284.053.556-.156.598-.458z"/>
    <path d="M12.704 19.286c-.004 0-.005.003 0 0zm0 0c-.197.114-.392.21-.603.318a10.11 10.11 0 0 0-.962.53c-.507.29-1.01.335-1.588.131-.056-.02-.115-.04-.17-.064-1.076-.462-1.954-1.276-2.598-1.933-1.757-1.81-3.116-3.98-4.036-6.448-.754-2.052-1.128-3.835-1.183-5.628-.037-1.095.077-1.898.36-2.594.18-.444.467-.765.877-.98l1.685-.889c.238-.116.461-.146.65-.08.233.083.375.298.454.465l.008.016c.155.302.297.609.445.935.075.165.154.332.231.503l.674 1.424c.261.553.14.936-.384 1.212-.143.076-.282.152-.424.224-.418.227-.813.435-1.231.626-.01.006-.019.007-.025.013-.425.224-.47.574-.473.82v.04c.05.764.22 1.528.544 2.482l.003.005c.601 1.69 1.35 3.106 2.288 4.319.12.155.25.292.373.422.111.117.216.228.301.337.012.013.023.03.036.043.105.11.213.184.335.227.308.108.565-.027.648-.072l1.69-.89c.167-.089.418-.179.651-.096.23.08.37.3.443.473l.005.01 1.36 2.874c.254.534.124.944-.384 1.225zm-.024-4.584c-.234-.522-.6-.886-1.06-1.048-.455-.16-.957-.107-1.456.156l-1.56.82c-.079-.09-.159-.174-.235-.258-.111-.117-.216-.228-.301-.336-.864-1.122-1.557-2.431-2.12-4.008-.268-.78-.414-1.41-.473-2.018.396-.186.774-.392 1.14-.588.139-.073.278-.15.417-.223 1.037-.547 1.373-1.61.855-2.706L7.214 3.07c-.076-.161-.155-.328-.227-.492a19.9 19.9 0 0 0-.466-.973C6.281 1.102 5.914.75 5.463.592 5.01.432 4.51.478 4.022.722l-.01.006-1.683.897A2.953 2.953 0 0 0 .951 3.16C.5 4.27.483 5.446.507 6.228c.06 1.92.455 3.82 1.255 5.988.975 2.617 2.416 4.92 4.285 6.844.717.726 1.694 1.631 2.937 2.165.076.032.156.064.23.09.856.302 1.676.23 2.443-.216.006-.006.015-.008.021-.014.27-.179.563-.323.872-.48.21-.104.426-.214.64-.334.495-.274.836-.675.988-1.156.153-.485.104-1.02-.146-1.542zm-2.148-8.616c.916.514 1.644 1.31 2.112 2.301.469.991.63 2.082.473 3.165a.556.556 0 0 0 .354.612c.03.01.056.016.087.022.289.05.557-.16.604-.465a6.673 6.673 0 0 0-.57-3.83c-.566-1.194-1.45-2.158-2.557-2.783a.516.516 0 0 0-.714.226c-.138.269-.048.609.211.752zm6.85 6.602a10.98 10.98 0 0 0-.939-6.307c-.932-1.972-2.387-3.554-4.21-4.584a.511.511 0 0 0-.71.228.575.575 0 0 0 .219.755c1.627.917 2.928 2.336 3.763 4.095a9.802 9.802 0 0 1 .839 5.638.556.556 0 0 0 .354.611c.03.01.056.016.087.022.284.053.556-.156.598-.458z"/>
</symbol><symbol id="icon-check" viewBox="0 0 12 10">
    <path d="M1.525 3.912l3.77 4.25 5.85-7.34" stroke-width="2"/>
</symbol><symbol id="icon-close" viewBox="0 0 12.918164 12.918163">
    <path d="M.354.354l12.21 12.21M12.565.354L.353 12.564"/>
</symbol><symbol id="icon-email" viewBox="0 0 12.734 10">
    
    <path class="a" d="M1.22 3.083c.163.109.643.447 1.46 1.013s1.427.991 1.863 1.3c.044.033.153.109.305.218s.283.2.381.272.229.142.37.229a2.255 2.255 0 0 0 .4.2 1.145 1.145 0 0 0 .359.065h.011a1.145 1.145 0 0 0 .359-.065 1.948 1.948 0 0 0 .4-.2c.142-.087.272-.163.37-.229s.229-.163.381-.272.251-.185.305-.218c.436-.305 1.547-1.068 3.322-2.309a3.272 3.272 0 0 0 .861-.871 1.888 1.888 0 0 0 .349-1.068 1.086 1.086 0 0 0-.338-.806A1.123 1.123 0 0 0 11.59 0H1.133a1 1 0 0 0-.839.37A1.428 1.428 0 0 0 0 1.3a1.667 1.667 0 0 0 .392.97 3.444 3.444 0 0 0 .828.817zm0 0"/>
    <path class="a" d="M12.015 3.845a148.102 148.102 0 0 0-3.54 2.44c-.272.2-.49.359-.654.468a3.516 3.516 0 0 1-.675.338 2.013 2.013 0 0 1-.784.174h-.011a2.013 2.013 0 0 1-.784-.174 3.726 3.726 0 0 1-.667-.338c-.163-.109-.392-.261-.654-.468q-.964-.7-3.529-2.451A3.6 3.6 0 0 1 0 3.213v5.643a1.086 1.086 0 0 0 .338.806 1.111 1.111 0 0 0 .806.338H11.59a1.086 1.086 0 0 0 .806-.338 1.111 1.111 0 0 0 .338-.806V3.224a4.4 4.4 0 0 1-.719.621zm0 0"/>
</symbol><symbol id="icon-ig" viewBox="0 0 20 20">
    
    <path id="Path_1054" data-name="Path 1054" class="cls-1" d="M18 0H2a1.974 1.974 0 0 0-2 2v16a1.974 1.974 0 0 0 2 2h16a1.974 1.974 0 0 0 2-2V2a1.974 1.974 0 0 0-2-2zm-8 6a3.949 3.949 0 0 1 4 4 3.949 3.949 0 0 1-4 4 3.949 3.949 0 0 1-4-4 3.949 3.949 0 0 1 4-4zM2.5 18a.538.538 0 0 1-.5-.5V9h2.125A2.752 2.752 0 0 0 4 10a6.083 6.083 0 0 0 6 6 6.084 6.084 0 0 0 6-6 2.752 2.752 0 0 0-.125-1H18v8.5a.538.538 0 0 1-.5.5zM18 4.5a.538.538 0 0 1-.5.5h-2a.538.538 0 0 1-.5-.5v-2a.538.538 0 0 1 .5-.5h2a.538.538 0 0 1 .5.5zm0 0"/>
</symbol><symbol id="icon-marker" viewBox="0 0 20 28">
    <path fill-rule="evenodd" clip-rule="evenodd" d="M10.073 27.218c.487 0 9.687-11.987 9.687-17.402 0-5.415-4.337-9.805-9.687-9.805S.386 4.401.386 9.816s9.2 17.401 9.687 17.401zm0-13.359c2.161 0 3.913-1.773 3.913-3.96 0-2.187-1.752-3.96-3.913-3.96-2.16 0-3.912 1.773-3.912 3.96 0 2.187 1.752 3.96 3.912 3.96z"/>
</symbol><symbol id="icon-net" viewBox="0 0 19 21">
    <path d="M18.986 9.888c-.083 1.917-.567 3.442-1.45 4.573-.874 1.123-2.054 1.685-3.538 1.685-.654 0-1.221-.139-1.7-.416a2.656 2.656 0 0 1-1.073-1.19c-.761 1.048-1.754 1.572-2.98 1.572-1.11 0-1.97-.46-2.579-1.382-.609-.921-.837-2.138-.685-3.651.137-1.236.453-2.334.947-3.292.503-.967 1.134-1.708 1.895-2.225.761-.517 1.583-.775 2.466-.775 1.088 0 2.016.247 2.785.741l.719.483-.582 6.495c-.076.591-.012 1.045.194 1.36.213.314.548.471 1.004.471.7 0 1.286-.4 1.758-1.202.472-.81.73-1.865.776-3.169.13-2.614-.407-4.621-1.61-6.022-1.194-1.408-2.967-2.113-5.318-2.113-1.469 0-2.778.368-3.927 1.102-1.149.734-2.054 1.779-2.716 3.134-.662 1.349-1.035 2.896-1.119 4.64-.122 2.653.419 4.701 1.62 6.147 1.203 1.453 3.003 2.18 5.4 2.18a9.87 9.87 0 0 0 1.986-.214c.692-.135 1.29-.318 1.792-.55l.434 1.73c-.464.3-1.092.54-1.884.72a10.18 10.18 0 0 1-2.374.28c-2.009 0-3.72-.4-5.136-1.202-1.416-.794-2.473-1.97-3.173-3.528-.693-1.55-.993-3.405-.902-5.562.091-2.068.57-3.921 1.438-5.562.868-1.64 2.047-2.906 3.539-3.798C6.492.45 8.18 0 10.06 0c1.91 0 3.554.404 4.931 1.213 1.378.802 2.409 1.952 3.094 3.45.684 1.498.985 3.24.901 5.225zm-11.47 1.19c-.085.99.003 1.742.262 2.26.258.508.677.763 1.255.763.373 0 .727-.16 1.062-.483.335-.322.612-.787.833-1.393l.48-5.315a2.91 2.91 0 0 0-.914-.146c-.875 0-1.556.367-2.043 1.101-.48.734-.791 1.805-.936 3.214z"/>
</symbol><symbol id="icon-phone" viewBox="0 0 39 38">
    <path d="M21.469 24.093l.115-.133a4.822 4.822 0 0 1 6.802-.492l.714.618a3.879 3.879 0 0 1 .396 5.47c-1.777 2.054-4.602 2.937-7.154 2.01-7.295-2.655-11.4-6.167-15.235-13.208-1.302-2.391-.847-5.325.934-7.384a3.86 3.86 0 0 1 5.445-.394l.52.449a4.547 4.547 0 0 1 .463 6.413l-.295.342M25.44 15.852a4.655 4.655 0 0 0-.623-1.33 5.975 5.975 0 0 0-1.059-1.193 5.977 5.977 0 0 0-1.334-.876 4.658 4.658 0 0 0-1.405-.425M31.076 14.88a9.235 9.235 0 0 0-1.132-3.137 10.469 10.469 0 0 0-2.22-2.677c-.89-.77-1.899-1.386-2.969-1.811a9.235 9.235 0 0 0-3.266-.669" stroke-width="3" stroke-linecap="round"/>
</symbol><symbol id="icon-plant" viewBox="0 0 30 27">
    <path d="M8.092 12.532L0 8.19v18.26H29.03V.236h-4.89v12.296L15.978 8.19v4.34l-7.886-4.34v4.34z"/>
    <path d="M3.868 17.722h4.887v4.396H3.868zM12.068 17.722h4.887v4.396h-4.887z"/>
</symbol><symbol id="icon-vk" viewBox="0 0 26.292 15">
    
    <path class="a" d="M12.861 14.935h1.571a1.335 1.335 0 0 0 .719-.313 1.125 1.125 0 0 0 .216-.688s-.031-2.11.95-2.418c.965-.308 2.2 2.038 3.517 2.937a2.485 2.485 0 0 0 1.746.534l3.512-.051s1.838-.113.965-1.556a11.779 11.779 0 0 0-2.608-3.019c-2.2-2.044-1.9-1.71.745-5.248 1.617-2.151 2.259-3.466 2.059-4.031-.19-.534-1.381-.4-1.381-.4l-3.95.025a.887.887 0 0 0-.513.092 1.136 1.136 0 0 0-.349.426 23.192 23.192 0 0 1-1.459 3.081c-1.761 2.988-2.465 3.148-2.752 2.964-.667-.431-.5-1.741-.5-2.665 0-2.9.436-4.1-.857-4.416a6.742 6.742 0 0 0-1.847-.186 8.568 8.568 0 0 0-3.281.334c-.452.221-.8.714-.585.739a1.776 1.776 0 0 1 1.166.585 3.794 3.794 0 0 1 .39 1.787s.231 3.409-.544 3.836c-.534.293-1.263-.3-2.834-3.014a25.586 25.586 0 0 1-1.413-2.927A1.163 1.163 0 0 0 5.22.907a1.66 1.66 0 0 0-.606-.246L.856.681S.291.696.081.943c-.185.221-.015.667-.015.667s2.942 6.88 6.269 10.346a9.029 9.029 0 0 0 6.521 2.978z"/>
</symbol><symbol id="icon-whatsapp" viewBox="0 0 19.999994 18.99695">
    <g clip-path="url(#a)" transform="translate(0 -.844)">
        <path d="M20 10.096c0 5.111-4.395 9.255-9.818 9.255-1.722 0-3.34-.418-4.746-1.151L0 19.84l1.772-4.965a8.822 8.822 0 0 1-1.409-4.779c0-5.112 4.396-9.255 9.82-9.255C15.604.84 20 4.984 20 10.096zm-9.818-7.782c-4.552 0-8.255 3.491-8.255 7.782 0 1.703.585 3.28 1.573 4.561l-1.032 2.89 3.172-.957a8.566 8.566 0 0 0 4.542 1.287c4.551 0 8.255-3.49 8.255-7.78 0-4.292-3.704-7.783-8.255-7.783zm4.958 9.914c-.06-.095-.22-.152-.462-.265-.24-.114-1.424-.662-1.644-.738-.22-.076-.382-.114-.542.114-.16.226-.622.737-.762.89-.14.15-.28.169-.522.056-.24-.114-1.015-.353-1.935-1.127-.715-.601-1.198-1.343-1.339-1.57-.14-.226-.014-.35.106-.463.108-.102.24-.265.36-.397.122-.132.162-.227.242-.378.08-.152.04-.285-.02-.398-.06-.113-.542-1.229-.743-1.684-.2-.454-.4-.379-.541-.379-.14 0-.3-.017-.461-.017a.907.907 0 0 0-.642.283c-.22.226-.842.776-.842 1.89 0 1.118.862 2.197.982 2.347.12.152 1.665 2.518 4.112 3.425 2.446.908 2.446.606 2.888.568.44-.038 1.423-.548 1.625-1.078.2-.53.2-.985.14-1.079z" clip-rule="evenodd" fill-rule="evenodd"/>
    </g>
    
</symbol><symbol id="icon-yt" viewBox="0 0 96.875 96.875">
    <path d="M95.201 25.538c-1.186-5.152-5.4-8.953-10.473-9.52-12.013-1.341-24.172-1.348-36.275-1.341-12.105-.007-24.266 0-36.279 1.341-5.07.567-9.281 4.368-10.467 9.52C.019 32.875 0 40.884 0 48.438 0 55.992 0 64 1.688 71.336c1.184 5.151 5.396 8.952 10.469 9.52 12.012 1.342 24.172 1.349 36.277 1.342 12.107.007 24.264 0 36.275-1.342 5.07-.567 9.285-4.368 10.471-9.52 1.689-7.337 1.695-15.345 1.695-22.898 0-7.554.014-15.563-1.674-22.9zM35.936 63.474V31.437a497491.15 497491.15 0 0 0 30.798 16.068c-10.3 5.342-20.504 10.631-30.798 15.969z"/>
</symbol><symbol id="logo-black" viewBox="0 0 134 43">
    <path d="M2.496 38.196l1.079.26v.131H0v-.13l1.012-.261v-10.49L0 27.444v-.13h6.678c0 .064-.068.195-.068.325V29.4c0 .13 0 .326.068.457h-.135c-.27-.261-.54-.587-.742-.978-.203-.39-.27-.782-.27-1.238H2.496v10.556zM7.757 31.55l-1.012-.26v-.131h2.428v.977c.135-.195.27-.39.473-.586.135-.13.404-.26.607-.391.27-.13.54-.196.877-.196.337 0 .741.065 1.079.26.337.196.674.457.944.783.27.326.54.782.675 1.238.202.521.27 1.042.27 1.694 0 .652-.068 1.173-.27 1.694-.203.521-.405.912-.742 1.238-.27.326-.675.587-1.012.782-.405.196-.81.26-1.214.26-.337 0-.607-.064-.877-.13-.202-.065-.405-.195-.54-.26-.202-.13-.337-.26-.404-.391v4.04l1.011.26v.13H6.678v-.13l1.012-.26V31.55h.067zm2.968 6.972c.27 0 .472-.065.674-.196.203-.13.405-.325.607-.586.203-.26.338-.652.405-1.108.135-.456.135-1.042.135-1.76 0-.716-.067-1.237-.135-1.758-.135-.457-.27-.848-.405-1.108a1.558 1.558 0 0 0-.54-.587 1.114 1.114 0 0 0-.606-.195c-.27 0-.54.065-.742.195-.203.13-.405.326-.54.522-.202.195-.337.456-.472.716v4.822c.135.196.202.326.405.456.135.13.27.261.472.326.202.196.472.26.742.26zM18.55 39.955c-.203.522-.338.913-.54 1.238-.203.326-.338.587-.54.847-.202.196-.405.326-.607.456-.203.066-.405.13-.675.13h-.404c-.068 0-.135 0-.135-.064l-.27-1.238c.067 0 .067.065.135.065h.405c.674 0 1.214-.13 1.55-.391.338-.26.54-.587.743-1.108l.472-1.368-3.035-7.037-1.012-.261v-.13h3.507v.13l-.944.26 2.226 5.148 1.821-5.017-1.146-.391v-.13h2.63v.13l-1.147.39-3.035 8.341zM25.294 38.522c.54 0 1.012-.196 1.417-.521.337-.326.54-.848.54-1.434s-.203-1.108-.54-1.434c-.337-.325-.81-.52-1.417-.52h-.337v-.327h.337c.54 0 .945-.13 1.215-.39.27-.261.404-.652.404-1.108 0-.456-.135-.847-.404-1.108-.27-.26-.54-.39-.81-.39-.472 0-.877.195-1.282.65-.404.392-.741 1.043-.944 1.825h-.27c0-.13 0-.26.068-.456 0-.13 0-.26.067-.456v-.521-.457c0-.13 0-.26-.067-.39 0-.13 0-.326-.068-.457h.27c.135.066.27.13.405.261.135.13.27.26.27.456.135-.13.27-.26.472-.39.135-.066.337-.196.54-.261a2.5 2.5 0 0 1 .741-.13c.338 0 .675.064 1.012.13.27.13.54.26.742.39.203.196.337.391.472.587.135.196.203.456.203.717 0 .39-.135.717-.337.912-.27.195-.54.39-.81.521-.337.13-.742.196-1.147.26.54.066 1.012.131 1.417.327.202.065.337.195.54.26.134.13.337.196.472.391.134.13.202.326.337.522.067.195.135.39.135.651 0 .326-.068.587-.203.847s-.337.522-.607.717c-.27.196-.607.39-1.011.521-.405.13-.877.196-1.417.196a3.25 3.25 0 0 1-1.147-.196 3.68 3.68 0 0 1-.876-.456c-.203-.195-.405-.39-.54-.652a1.687 1.687 0 0 1-.202-.781c0-.522.134-.913.404-1.173s.54-.391.945-.391H24.755l-.472 1.042c-.405 0-.675.066-.877.196-.203.13-.27.326-.27.586 0 .13.067.26.135.456.135.13.27.326.472.457.202.13.405.26.675.325.27.13.54.196.876.196zM33.389 30.898c.404 0 .876.065 1.214.26.404.196.742.457 1.079.783.337.325.54.781.742 1.238.202.52.27 1.042.27 1.694 0 .651-.068 1.173-.27 1.694-.203.521-.405.912-.742 1.238-.337.326-.675.586-1.08.782-.404.195-.809.26-1.213.26-.473 0-.877-.065-1.282-.26-.405-.196-.742-.456-1.08-.782-.337-.326-.539-.782-.741-1.238-.203-.521-.27-1.043-.27-1.694 0-.652.067-1.173.27-1.694.202-.522.404-.913.742-1.238.337-.326.674-.587 1.079-.782.405-.13.877-.26 1.282-.26zm0 .26c-.203 0-.405.066-.608.196-.202.13-.404.326-.54.587-.134.26-.336.651-.404 1.107-.135.456-.135 1.043-.135 1.76 0 .716.068 1.303.135 1.759.135.456.27.847.405 1.108.135.26.337.521.54.586.202.13.404.196.607.196.202 0 .404-.066.607-.196.202-.13.404-.326.54-.586.134-.261.337-.652.404-1.108.135-.456.135-1.043.135-1.76 0-.716-.068-1.303-.135-1.759-.135-.456-.27-.847-.405-1.107-.135-.261-.337-.522-.54-.587a1.114 1.114 0 0 0-.606-.195zM38.11 38.457l1.012-.261V31.55l-1.012-.261v-.13h3.035c.54 0 .945.065 1.35.13.404.065.674.195.944.391.27.13.404.326.54.521.134.196.134.391.134.652 0 .326-.135.586-.337.847-.27.195-.54.326-.81.456-.337.13-.741.196-1.146.26.54.066 1.08.131 1.484.327.202.065.337.13.54.26.202.13.337.196.472.391.135.13.27.326.337.456.067.196.135.391.135.587 0 .26-.068.52-.202.847a1.71 1.71 0 0 1-.675.717c-.27.195-.675.39-1.147.456a6.1 6.1 0 0 1-1.619.195H38.11v-.195zm2.428-6.973v2.737h.607c1.012 0 1.552-.456 1.552-1.368 0-.912-.54-1.369-1.552-1.369h-.607zm0 6.777h.607c.675 0 1.147-.195 1.552-.521.337-.326.54-.782.54-1.369 0-.586-.203-1.042-.54-1.368a2.715 2.715 0 0 0-1.552-.456h-.607v3.714zM48.97 33.895c.607 0 1.147.066 1.619.196s.877.26 1.146.521c.27.196.54.456.675.717.135.26.202.586.202.912 0 .326-.067.652-.202.912a1.71 1.71 0 0 1-.675.717c-.27.196-.674.391-1.146.521a6.098 6.098 0 0 1-1.62.196h-3.034v-.13l1.011-.261V31.55l-1.011-.261v-.13h3.507v.13l-1.012.26v2.346h.54zm-.607.326v4.04h.607c.674 0 1.147-.195 1.551-.521.337-.326.54-.847.54-1.499 0-.651-.203-1.173-.54-1.498-.337-.326-.877-.522-1.551-.522h-.607zm6.947 3.975l1.012.26v.13h-3.507v-.13l1.011-.26V31.55l-1.011-.261v-.13h3.507v.13l-1.012.26v6.647zM59.29 34.873c0 .717.067 1.238.135 1.76.135.455.27.846.405 1.107.202.26.404.456.607.586.202.13.472.196.674.196.27 0 .607-.065.877-.13.27-.13.472-.261.742-.457.202-.195.405-.39.54-.651.134-.26.202-.521.27-.847h.27c-.068.326-.136.651-.338.977-.135.326-.337.521-.607.782-.27.196-.54.39-.877.521a2.79 2.79 0 0 1-1.012.196c-.472 0-.877-.065-1.281-.26-.405-.196-.742-.457-1.08-.783-.337-.326-.54-.782-.742-1.238-.202-.521-.27-1.042-.27-1.694 0-.652.068-1.238.27-1.694.203-.521.405-.912.675-1.238a2.97 2.97 0 0 1 1.012-.782c.404-.196.742-.26 1.214-.26.405 0 .81.064 1.214.26.405.195.675.39 1.012.782.27.326.54.717.674 1.238.203.521.27 1.042.27 1.694H59.29v-.065zm1.619-3.714c-.203 0-.337.065-.54.13-.202.13-.337.26-.472.521-.135.261-.27.587-.405 1.043a41.538 41.538 0 0 0-.202 1.694h3.103c0-.652-.068-1.238-.203-1.629-.067-.456-.202-.782-.404-1.043-.135-.26-.338-.456-.473-.52-.067-.131-.27-.196-.404-.196zM73.252 38.457v.13h-3.575v-.13l1.012-.261v-10.49l-1.011-.261v-.13h8.566v.13l-1.012.26v10.491l1.012.26v.131h-3.575v-.13l1.012-.261V27.64h-3.508v10.556l1.08.26zM80.537 31.55l-1.012-.26v-.131h2.429v.977c.135-.195.27-.39.472-.586.135-.13.405-.26.607-.391.27-.13.54-.196.877-.196.337 0 .742.065 1.079.26.337.196.675.457.944.783.27.326.54.782.675 1.238.202.521.27 1.042.27 1.694 0 .652-.068 1.173-.27 1.694-.203.521-.405.912-.742 1.238-.27.326-.675.587-1.012.782-.405.196-.81.26-1.214.26-.337 0-.607-.064-.877-.13-.202-.065-.405-.195-.54-.26-.202-.13-.337-.26-.404-.391v4.04l1.012.26v.13h-3.508v-.13l1.012-.26V31.55h.202zm2.968 6.972c.27 0 .472-.065.675-.196.202-.13.404-.325.607-.586.202-.26.337-.652.404-1.108.135-.456.135-1.042.135-1.76 0-.716-.067-1.237-.135-1.758-.135-.457-.27-.848-.404-1.108a1.558 1.558 0 0 0-.54-.587 1.114 1.114 0 0 0-.607-.195c-.27 0-.54.065-.742.195a2.02 2.02 0 0 0-.54.522c-.202.195-.337.456-.472.716v4.822c.135.196.203.326.405.456.135.13.27.261.472.326.203.196.472.26.742.26zM92.88 31.354v-.13h3.373v.13l-1.011.26v6.647l1.011.26v.131h-3.372v-.195l.944-.261v-5.343l-3.035 4.365v.978l.944.26v.13h-3.372v-.13l1.011-.26V31.55l-1.011-.261v-.13h3.372v.13l-.944.26v5.083l3.035-4.366v-.716l-.944-.196zM105.764 38.261c0 .13-.067.196-.067.326V40.476c0 .13 0 .261.067.392h-.202c-.27-.261-.54-.587-.81-.978a2.95 2.95 0 0 1-.337-1.368h-6.948v-.065l1.012-.261V31.55l-1.011-.261v-.13h3.372v.13l-.944.26v6.712h2.968V31.55l-.945-.261v-.13h3.373v.13l-1.012.26v6.712h1.484zM108.26 34.873c0 .717.067 1.238.135 1.76.135.455.269.846.404 1.107.203.26.405.456.607.586.203.13.473.196.675.196.27 0 .607-.065.877-.13.27-.13.472-.261.742-.457.202-.195.405-.39.539-.651.135-.26.203-.521.27-.847h.27c-.067.326-.135.651-.337.977-.135.326-.337.521-.607.782-.27.196-.54.39-.877.521a2.79 2.79 0 0 1-1.012.196c-.472 0-.877-.065-1.282-.26-.404-.196-.741-.457-1.079-.783-.337-.326-.539-.782-.742-1.238-.202-.521-.27-1.042-.27-1.694 0-.652.068-1.238.27-1.694.203-.521.405-.912.675-1.238a2.97 2.97 0 0 1 1.012-.782c.404-.196.742-.26 1.214-.26.404 0 .809.064 1.214.26a2.82 2.82 0 0 1 1.012.782c.269.326.539.717.674 1.238.202.521.27 1.042.27 1.694h-4.654v-.065zm1.619-3.714c-.203 0-.338.065-.54.13-.202.13-.337.26-.472.521a5.82 5.82 0 0 0-.405 1.043c-.067.456-.135.977-.202 1.629h3.103c0-.652-.068-1.238-.203-1.63-.067-.455-.202-.781-.405-1.042-.134-.26-.337-.456-.472-.52-.067-.066-.269-.131-.404-.131zM114.263 31.159h7.824v.13l-1.011.26v6.647l1.011.26v.13h-3.372v-.13l.944-.26v-6.711h-2.968v6.71l.945.262v.13h-3.373v-.13l1.012-.261V31.55l-1.012-.261v-.13zM126.404 33.895a6.1 6.1 0 0 1 1.619.196c.472.13.877.26 1.147.521.27.196.539.456.674.717.135.26.203.586.203.912 0 .326-.068.652-.203.912a1.71 1.71 0 0 1-.674.717c-.27.196-.675.391-1.147.521a6.1 6.1 0 0 1-1.619.196h-3.035v-.13l1.012-.261V31.55l-1.012-.261v-.13h3.508v.13l-1.012.26v2.346h.539zm-.674.326v4.04h.607c.674 0 1.147-.195 1.551-.521.338-.326.54-.847.54-1.499 0-.651-.202-1.173-.54-1.498-.337-.326-.877-.522-1.551-.522h-.607zm7.015 3.975l1.012.26v.13h-3.508v-.13l1.012-.26V31.55l-1.012-.261v-.13h3.508v.13l-1.012.26v6.647zM100.233 11.937l-.067-.326c0-.13-.068-.196-.135-.26L98.344 7.18l.203-.065-.27-.391s.067-.065 0-.196c-.202-.586-.877-1.433-1.619-1.433H87.08l-.405 3.388v5.8h2.294v.651h5.598l.944 1.368h4.655c.067 0 .135-.065.135-.13v-4.04c-.068-.13-.068-.195-.068-.195zm-.27 3.91h-4.317l-.877-1.239c-.067-.065-.134-.13-.202-.13H89.24v-.391c0-.13-.136-.26-.27-.26h-2.024v-5.54l.337-3.127h9.376c.607 0 1.214.717 1.35 1.303a.193.193 0 0 0 0 .26c.067.066.067.131.134.196l-.067.065v.196l1.686 4.17s0 .065.067.065c.068.066.068.13.068.196l.067.326v3.909zM61.645 18.45h.54v-3.387h-.54v3.388z"/>
    <path d="M61.173 18.1h1.484v-1.434h-1.484v1.433zM61.173 18.881h1.416v-.456h-1.416v.456zM60.903 19.09h2.091v-.195h-2.09v.195zM66.907 17.779h.337v-2.737h-.337v2.737zM27.048 16.628h35.817l1.821-1.564L27.048 15v1.629z"/>
    <path d="M27.048 15.39l37.166.065.405-.39-37.57-.066v.391zM27.048 16.628h35.817l.405-.39H27.048v.39z"/>
    <path d="M28.802 15.064l-1.821 1.63v1.237h-.473v-1.433l.473-1.434h1.82z"/>
    <path d="M26.576 17.866h-.405l-.067-.065v-1.238l.067-.065h.405l.067.065-.067 1.303z"/>
    <path d="M26.576 17.866h-.405l-.067-.065v-1.238l.067-.065h.405l.067.065-.067 1.303z"/>
    <path d="M26.254 16.623v.326h.337v-.326h-.337z"/>
    <path d="M26.304 16.802c0-.072-.03-.13-.067-.13-.037 0-.067.057-.067.13 0 .071.03.13.067.13.037 0 .067-.058.067-.13zM26.576 17.084h-.337v.326h.337v-.326z"/>
    <path d="M26.288 17.207c0-.072-.03-.13-.067-.13-.037 0-.067.058-.067.13 0 .072.03.13.067.13.037 0 .067-.058.067-.13zM26.222 17.433v.326h.337v-.325h-.337z"/>
    <path d="M26.239 17.736c.037 0 .067-.059.067-.13 0-.073-.03-.13-.067-.13-.038 0-.068.057-.068.13 0 .071.03.13.068.13z"/>
    <path d="M26.239 17.8c-.068-.064-.068-.064-.135-.064v-1.043c.067 0 .067-.065.067-.065h.068c0 .065.067.065.067.065v1.043c0 .065 0 .065-.067.065z"/>
    <path opacity=".2" d="M26.171 17.8s-.067 0 0 0l-.067-1.172s0-.065.067-.065c0 0 .068 0 .068.065l-.068 1.173c.068 0 0 0 0 0z"/>
    <path d="M26.508 16.563h-.134c.067 0 .067 0 .067.065v1.173s0 .065-.067.065h.134l.068-.065v-1.108c0-.065 0-.13-.068-.13zM59.037 17.779h.337v-2.737h-.337v2.737zM51.235 17.779h.337v-2.737h-.337v2.737z"/>
    <path d="M67.047 17.215H50.52v.847h17.47v-.847h-.944zM28.667 17.54l.54-1.107c.404-.913 1.416-1.499 2.428-1.499h15.041a2.76 2.76 0 0 1 2.429 1.499l.54 1.107c.134.196.134.457.134.652v.651c0 .066-.067.196-.202.196h-.27c-.067 0-.135-.065-.135-.196v-.52c0-.196-.067-.392-.135-.587l-.472-.978c-.337-.716-1.079-1.172-1.889-1.172H31.567c-.809 0-1.551.456-1.888 1.172l-.472.978c-.068.195-.135.39-.135.586v.521c0 .066-.068.13-.135.196h-.27c-.068 0-.202-.065-.202-.196v-.651c.067-.195.067-.391.202-.652z"/>
    <path d="M25.953 15.108h59.695v-.651H25.953v.651z"/>
    <path fill-rule="evenodd" clip-rule="evenodd" d="M84.754 1.608H26.907v12.03h57.847V1.608zM25.963.664v13.918h59.735V.664H25.963z"/>
    <path d="M79.108 15.664h2.159v-.326h-2.159v.326z"/>
    <path d="M78.623 15.363h3.305v-.39h-3.305v.39zM86.362 14.487h1.781v1.876h-1.78v-1.876z"/>
    <path d="M70.217 15.911l1.214-.521h2.294l1.281 1.043.877 2.215h1.012l.202-2.606 6.476.065.135 2.606 1.618-.065 2.294-2.41v-.587H68.936v1.89l1.281-1.63z"/>
    <path d="M75.141 16.433h13.49l1.08-.782H74.06l1.08.782zM87.439 4.965H95.6v-.26h-8.162v.26z"/>
    <path d="M90.722 14.804l-1.483 1.498a2.699 2.699 0 0 0-.81 1.694l-.135 1.238h-.472v-4.43h2.9zM68.666 17.931s.135.587.135 1.043c0 .456-.135 1.173-.135 1.238 0 .065.27-.196.27-.326.067-.195.134-.521.202-.977.067-.978-.27-1.303-.27-1.303l-.202.325z"/>
    <path d="M87.89 15.586v3.649h-.27v-.391c0-.261-.203-.391-.405-.391h-.877a.382.382 0 0 0-.405.39v.392H84.45v-3.65h3.44z"/>
    <path d="M87.215 19.17a.332.332 0 0 0 .337-.327.332.332 0 0 0-.337-.325.332.332 0 0 0-.337.325c0 .18.15.326.337.326zM86.338 19.17a.332.332 0 0 0 .337-.327.332.332 0 0 0-.337-.325.332.332 0 0 0-.337.325c0 .18.15.326.337.326zM93.083 7.636h-3.372v.326h3.372v-.326zM89.71 8.027v.326h3.373v-.326h-3.372zM89.71 8.483v.326h3.373v-.326h-3.372zM89.71 8.874V9.2h3.373v-.326h-3.372zM89.71 9.265v.391h3.373v-.391h-3.372zM86.858 14.774h2.226v-8.08h-2.226v8.08zM98.007 7.18l1.484 3.649c0 .065.135.13.202.13h.203l.135.261h-.338c-.067 0-.202-.065-.202-.13L97.94 7.18h.067zM94.635 12.328c-.135 0-.27.13-.27.26v.587c0 .13.135.26.27.26.134 0 .27-.13.27-.26v-.587c-.068-.13-.136-.26-.27-.26zM73.05 15.064h-1.416a2.76 2.76 0 0 0-2.429 1.499l-.607 1.238c-.067.065-.067.195-.067.26v.13c0 .066.067.066.067.066h.338c.067 0 .134-.065.134-.13v-.13l.607-1.239c.338-.716 1.08-1.172 1.89-1.172h1.348c.81 0 1.551.456 1.889 1.172l.472.978c.067.195.135.39.135.586v.587c0 .065.067.13.135.195h.27c.067 0 .202-.065.202-.195v-.652c0-.26-.068-.456-.135-.652l-.54-1.042c-.337-.912-1.281-1.499-2.293-1.499zM98.412 10.568l-1.08-2.867c0-.065-.067-.13-.134-.13H94.5c-.068 0-.068 0-.068.065v2.541s0 .066.068.066l2.9.912h1.012c.067 0 .067-.066.067-.066.068-.065 0-.39-.067-.52zM68.936 16.693h-.27v-1.042h.27v1.042c.068-.065.068 0 0 0z"/>
    <path d="M68.936 16.693h-.27v-1.042h.27v1.042c.068-.065.068 0 0 0z"/>
    <path d="M68.936 15.716h-.203v.26h.203v-.26z"/>
    <path d="M68.732 15.976c.037 0 .068-.059.068-.13 0-.073-.03-.131-.068-.131-.037 0-.067.058-.067.13 0 .072.03.13.067.13zM68.936 16.042h-.203v.26h.203v-.26z"/>
    <path d="M68.733 16.302c.037 0 .068-.058.068-.13 0-.072-.03-.13-.068-.13-.037 0-.067.058-.067.13 0 .072.03.13.067.13zM68.936 16.368h-.203v.26h.203v-.26z"/>
    <path d="M68.733 16.628c.037 0 .068-.058.068-.13 0-.072-.03-.13-.068-.13-.037 0-.067.058-.067.13 0 .072.03.13.067.13z"/>
    <path d="M68.8 16.628h-.067v-.912h.068v.912z"/>
    <path opacity=".2" d="M68.666 16.627l-.068-.912h.135l-.067.912c.067 0 .067 0 0 0z"/>
    <path d="M68.936 15.65h-.068.068l-.068.978s0 .065-.067.065h.067V15.716c.135-.065.135-.065.068-.065zM97.146 7.385h.486v.157h-.486v-.157zM98.662 11.347h.486v.157h-.486v-.157zM94.837 18.518v-.326h-.068v-.13h.068l-.068-.326h-.067c0-.065 0-.065-.067-.13h.067l-.135-.326H94.5c0-.066-.068-.066-.068-.13h.068l-.203-.326h-.067c0-.066-.068-.066-.068-.066l.068-.065-.27-.26-.067.065-.068-.065.068-.066-.27-.26-.068.065-.067-.065v-.065l-.337-.196v.065c-.068 0-.068-.065-.135-.065v-.065l-.338-.13v.065c-.067 0-.067 0-.134-.065v-.066l-.338-.065v.066h-.135v-.066h-.337v.066H91.6v-.066l-.337.066v.065c-.067 0-.067 0-.135.065v-.065l-.337.13v.065c-.068 0-.068.065-.135.065v-.065l-.337.196v.065c-.068 0-.068.065-.068.065l-.067-.065-.27.26.067.066-.067.065-.067-.065-.27.26.067.065-.067.066h-.068l-.202.325h.067c0 .066-.067.066-.067.13h-.068l-.135.326h.068c0 .066 0 .066-.068.13h-.067l-.067.327h.067v.13h-.067v.326h.067v.13h-.067l.067.326h.067c0 .065 0 .065.068.13h-.068l.135.326h.068c0 .065.067.065.067.13h-.067l.202.326h.068c0 .065.067.065.067.065l-.067.065.27.261.067-.065.067.065-.067.065.27.26.067-.064.068.065v.065l.337.195v-.065c.067 0 .067.066.135.066v.065l.337.13v-.065c.068 0 .068 0 .135.065v.065l.337.065v-.065h.135v.065h.337v-.065h.135v.065l.338-.065v-.065c.067 0 .067 0 .135-.065v.065l.337-.13v-.066c.067 0 .067-.065.135-.065v.066l.337-.196v-.065c.067 0 .067-.065.067-.065l.068.065.27-.26-.068-.066.068-.065.067.065.27-.26-.068-.066.068-.065h.067l.203-.326h-.068c0-.065.068-.065.068-.13h.067l.135-.326h-.067c0-.065 0-.065.067-.13h.067l.068-.326h-.068v-.13h.068zm-2.766 1.694c-1.079 0-1.956-.847-1.956-1.89 0-1.042.877-1.89 1.956-1.89 1.08 0 1.957.848 1.957 1.89 0 1.043-.877 1.89-1.957 1.89zm1.552-1.89c0 .847-.675 1.499-1.552 1.499-.876 0-1.551-.652-1.551-1.499 0-.847.675-1.498 1.551-1.498.81 0 1.552.651 1.552 1.498zM95.714 4.639l-.203-.13c-1.551-1.043-3.035-1.565-5.53-1.955-.945-.13-2.564-.196-2.564-.196l-.337 2.41h8.566c.068-.064.068-.064.068-.13zm-8.364-.196l.27-1.89c.472 0 1.618.13 2.293.196 2.293.39 3.71.847 5.059 1.694H87.35zM36.02 14.413h-9.984V.729h1.889l8.094 13.684z"/>
    <path d="M85.529 13.175H33.59v1.498h51.938v-1.498z"/>
    <path d="M52.545 2.032h-.675v11.599h.675V2.032zM60.1 1.967h-.675v11.599h.674V1.967zM67.587 2.032h-.675v11.599h.674V2.032zM75.006 2.032h-.674v11.599h.674V2.032zM82.493 2.097h-.674v11.599h.674V2.097zM37.638 2.032h-.674v11.599h.674V2.032zM45.058 2.032h-.675v11.599h.675V2.032zM81.212 15.781h-1.62v3.258h1.62v-3.258zM83.1 15.781h-1.618v3.258H83.1v-3.258zM79.323 15.781h-1.619v3.258h1.62v-3.258zM84.315 15.781h-.945v3.258h.945v-3.258zM100.031 11.285l-.472-1.173v-.39h.202v-.783h-.202V7.897c0-.065-.068-.13-.135-.13V9.72l-.945-2.28h.338l-.27-.652c-.068-.13-.135-.195-.27-.195H86.945l-.067.52h10.59c.135 0 .337.131.404.261v.066h.068c.135.39.472 1.107.81 2.02.404 1.107.606 1.694.674 1.954 0 .066.067.13.202.13h.607c-.067-.13-.135-.195-.202-.26z"/>
    <path d="M97.468 7.375s-.068-.065 0 0l-.203-.065s-.067 0-.067.065v.13s0 .066.067.066h.203s.067 0 .067-.065h.135V7.44l-.202-.066zM99.086 11.35h-.067s0-.065-.068-.065h-.27s-.067 0-.067.065v.13s0 .066.068.066h.27s.067 0 .067-.065v-.066l.067-.065zM100.098 16.498h-.135v-.652h-4.317c-.202-.977-1.079-1.694-2.158-1.694h-6.745v1.173h6.88a1.36 1.36 0 0 1 1.349 1.108l.405 2.932h4.249l.675-.196c.067 0 .134-.13.134-.195v-2.215c-.134-.196-.269-.261-.337-.261zm-.81 2.41h-3.507l-.067-.781h3.575v.782zm0-1.172h-3.507l-.067-.782h3.575v.782zM75.074 18.518v-.326h-.068v-.13h.068l-.068-.326h-.067c0-.065 0-.065-.068-.13h.068l-.135-.326h-.068c0-.066-.067-.066-.067-.13h.067l-.202-.326h-.068c0-.066-.067-.066-.067-.066l.067-.065-.27-.26-.067.065-.067-.065.067-.066-.27-.26-.067.065-.067-.065v-.065l-.338-.196v.065c-.067 0-.067-.065-.135-.065v-.065l-.337-.13v.065c-.067 0-.067 0-.135-.065v-.066l-.337-.065v.066h-.135v-.066h-.337v.066h-.135v-.066l-.337.066v.065c-.068 0-.068 0-.135.065v-.065l-.338.13v.065c-.067 0-.067.065-.134.065v-.065l-.338.196v.065c-.067 0-.067.065-.067.065l-.067-.065-.27.26.067.066-.067.065-.068-.065-.27.26.068.065-.068.066h-.067l-.202.325h.067c0 .066-.067.066-.067.13h-.068l-.135.326h.068c0 .066 0 .066-.068.13h-.067l-.068.327h.068v.13h-.068v.326h.068v.13h-.068l.068.326h.067c0 .065 0 .065.068.13h-.068l.135.326h.068c0 .065.067.065.067.13h-.067l.202.326h.067c0 .065.068.065.068.065l-.068.065.27.261.068-.065.067.065-.067.065.27.26.067-.064.067.065v.065l.338.195v-.065c.067 0 .067.066.135.066v.065l.337.13v-.065c.067 0 .067 0 .135.065v.065l.337.065v-.065h.135v.065h.337v-.065h.135v.065l.337-.065v-.065c.068 0 .068 0 .135-.065v.065l.337-.13v-.066c.068 0 .068-.065.135-.065v.066l.338-.196v-.065c.067 0 .067-.065.067-.065l.067.065.27-.26-.067-.066.067-.065.068.065.27-.26-.068-.066.067-.065h.068l.202-.326h-.067c0-.065.067-.065.067-.13h.068l.135-.326h-.068c0-.065 0-.065.068-.13h.067l.068-.326h-.068v-.13h.068zm-2.766 1.694c-1.08 0-1.956-.847-1.956-1.89 0-1.042.877-1.89 1.956-1.89 1.08 0 1.956.848 1.956 1.89 0 1.043-.877 1.89-1.956 1.89zm1.551-1.89c0 .847-.674 1.499-1.55 1.499-.878 0-1.552-.652-1.552-1.499 0-.847.674-1.498 1.551-1.498.877 0 1.551.651 1.551 1.498zM48.498 18.518v-.326h-.068v-.13h.068l-.068-.326h-.067c0-.065 0-.065-.068-.13h.068l-.135-.326h-.068c0-.066-.067-.066-.067-.13h.067l-.202-.326h-.067c0-.066-.068-.066-.068-.066l.068-.065-.27-.26-.068.065-.067-.065.067-.066-.27-.26-.067.065-.067-.065v-.065l-.338-.196v.065c-.067 0-.067-.065-.135-.065v-.065l-.337-.13v.065c-.067 0-.067 0-.135-.065v-.066l-.337-.065v.066h-.135v-.066h-.337v.066h-.135v-.066l-.27.13v.066c-.067 0-.067 0-.135.065v-.065l-.337.13v.065c-.067 0-.067.066-.135.066v-.066l-.337.196v.065c-.068 0-.068.065-.068.065l-.067-.065-.27.26.068.066-.068.065-.067-.065-.27.26.067.066-.067.065h-.068l-.067.195h.068c0 .065-.068.065-.068.13h-.067l-.135.326h.067c0 .066 0 .066-.067.13h-.068l-.067.326h.067v.13h-.067v.327h.067v.13h-.067l.067.326h.068c0 .065 0 .065.067.13h-.067l.135.326h.067c0 .065.068.065.068.13l-.068.065.202.326h.068c0 .065.067.065.067.065l-.067.065.27.261.067-.065.068.065-.068.065.27.26.067-.064.068.065v.065l.337.195v-.065c.068 0 .068.066.135.066v.065l.337.13v-.065c.068 0 .068 0 .135.065v.065l.337.065v-.065h.135v.065h.27v-.065h.135v.065l.337-.065v-.065c.068 0 .068 0 .135-.065v.065l.337-.13v-.066c.068 0 .068-.065.135-.065v.066l.338-.196v-.065c.067 0 .067-.065.067-.065l.068.065.27-.26-.068-.066.067-.065.068.065.27-.26-.135-.13.067-.066h.068l.202-.326h-.068c0-.065.068-.065.068-.13h.067l.135-.326h-.067c0-.065 0-.065.067-.13h.068l.067-.326h-.067v-.13.065zm-2.833 1.694c-1.08 0-1.956-.847-1.956-1.89 0-1.042.877-1.89 1.956-1.89s1.956.848 1.956 1.89c0 1.043-.877 1.89-1.956 1.89zm1.619-1.89c0 .847-.675 1.499-1.552 1.499s-1.551-.652-1.551-1.499c0-.847.674-1.498 1.551-1.498.81 0 1.552.651 1.552 1.498zM41.887 18.583v-.326h-.067v-.13h.067l-.067-.391h-.068c0-.065 0-.065-.067-.13h.067l-.134-.326h-.068c0-.065-.067-.065-.067-.13h.067l-.202-.326h-.068c0-.066-.067-.066-.067-.066l.067-.065-.27-.26-.067.065-.067-.065.067-.066-.27-.26-.067.065-.068-.065v-.065l-.337-.196v.065c-.067 0-.067-.065-.135-.065v-.065l-.337-.13v.065c-.068 0-.068 0-.135-.065v-.065l-.202.065v.065h-.135v-.065h-.337v.065h-.135v-.065l-.338.065v.065c-.067 0-.067 0-.135.065v-.065l-.337.13v.066c-.067 0-.067.065-.135.065v-.066l-.337.196v.065c-.067 0-.067.065-.067.065l-.068-.065-.27.196.068.065-.068.065-.067-.065-.27.26.067.066-.067.065h-.067l-.203.326h.068c0 .065-.068.065-.068.13h-.067l-.068.26h.068c0 .066 0 .066-.068.13h-.067l-.068.327h.068v.13h-.068v.326h.068v.13h-.068l.068.326h.067c0 .065 0 .065.068.13h-.068l.135.326h.068c0 .065.067.065.067.13h-.067l.202.326h.067l.068.065-.068.065.27.261.068-.065.067.065-.135.065.27.26.068-.064.067.065v.065l.27.195v-.065c.067 0 .067.066.135.066v.065l.337.13v-.065c.067 0 .067 0 .135.065v.065l.337.065v-.065h.135v.065h.337v-.065h.135v.065l.337-.065v-.065c.068 0 .068 0 .135-.065v.065l.338-.13v-.066c.067 0 .067-.065.135-.065v.066l.337-.196v-.065l.067-.065.068.065.27-.26-.068-.066.068-.065.067.065.27-.26-.068-.066.068-.065h.067l.203-.326h-.068c0-.065.068-.065.068-.13h.067l.135-.326h-.068c0-.065 0-.065.068-.13h.067l.068-.326h-.068v-.13.065zm-2.833 1.694c-1.079 0-1.956-.847-1.956-1.89 0-1.042.877-1.89 1.956-1.89 1.08 0 1.956.848 1.956 1.89 0 1.043-.876 1.89-1.956 1.89zm1.552-1.89c0 .848-.675 1.5-1.552 1.5s-1.551-.652-1.551-1.5c0-.847.675-1.498 1.551-1.498.877 0 1.552.651 1.552 1.498zM35.277 18.583v-.326h-.067v-.13h.067l-.067-.326h-.068c0-.065 0-.065-.067-.13h.067l-.135-.326h-.067c0-.065-.068-.065-.068-.13h.068l-.203-.326h-.067c0-.065-.067-.065-.067-.065l.067-.066-.27-.26v.065l-.067-.065.067-.065-.27-.261-.067.065-.067-.065v-.065l-.338-.196v.066c-.067 0-.067-.066-.135-.066v-.065l-.337-.13v.065c-.067 0-.067 0-.135-.065v-.065h-.337v.065h-.135v-.065h-.337v.065h-.135v-.065l-.337.065v.065c-.068 0-.068 0-.135.065v-.065l-.338.13v.066c-.067 0-.067.065-.134.065v-.065l-.338.195v.065c-.067 0-.067.065-.067.065l-.068-.065-.27.26.068.066-.067.065-.068-.065-.27.26.068.066-.068.065h-.067l-.202.326h.067c0 .065-.067.065-.067.13h-.068v.195h.068c0 .066 0 .066-.068.13h-.067l-.068.327h.068v.13h-.068v.326h.068v.13h-.068l.068.326h.067c0 .065 0 .065.068.13h-.068l.135.326h.067c0 .065.068.065.068.13h-.067l.202.326h.067l.068.065-.068.066.27.26.067-.065.068.065-.068.065.27.26.068-.064.067.065v.065l.337.195v-.065c.068 0 .068.066.135.066v.065l.338.13v-.065c.067 0 .067 0 .135.065v.065l.337.065v-.065h.135v.065h.337v-.065h.135v.065l.337-.065v-.065c.068 0 .068 0 .135-.065v.065l.337-.13v-.066c.068 0 .068-.065.135-.065v.066l.337-.196v-.065c.068 0 .068-.065.068-.065l.067.065.27-.26-.067-.066.067-.065.068.065.27-.26-.068-.066.067-.065h.068l.202-.326h-.067c0-.065.067-.065.067-.13h.068l.135-.326h-.068c0-.065 0-.065.068-.13h.067l.068-.326h-.068v-.13l-.135.065zm-2.833 1.694c-1.08 0-1.956-.847-1.956-1.89 0-1.042.877-1.89 1.956-1.89 1.08 0 1.956.848 1.956 1.89 0 1.043-.877 1.89-1.956 1.89zm1.552-1.89c0 .848-.675 1.5-1.552 1.5s-1.551-.652-1.551-1.5c0-.847.674-1.498 1.551-1.498.877 0 1.552.651 1.552 1.498zM77.502 16.302h-1.08v2.672h1.08v-2.672z"/>
</symbol><symbol id="logo-sm" viewBox="0 0 245 23">
    <path d="M97.98 16.882l1.202.29v.145H95.2v-.145l1.127-.29V5.196l-1.127-.29V4.76h7.439c0 .073-.075.218-.075.363v1.96c0 .145 0 .363.075.508h-.15a4.24 4.24 0 0 1-.827-1.089c-.225-.435-.3-.871-.3-1.38H97.98zM103.842 9.473l-1.127-.29v-.145h2.705v1.089c.15-.218.3-.436.526-.654.15-.145.45-.29.676-.435.3-.145.601-.218.977-.218s.827.073 1.202.29c.376.218.752.508 1.052.871.3.363.601.871.752 1.38.225.58.3 1.16.3 1.887 0 .726-.075 1.306-.3 1.887-.226.58-.451 1.016-.827 1.38-.3.362-.751.652-1.127.87-.45.218-.902.29-1.352.29-.376 0-.677-.072-.977-.145-.226-.072-.451-.217-.601-.29-.226-.145-.376-.29-.451-.436v4.5l1.127.291v.145h-3.757v-.145l1.127-.29V9.473zm3.306 7.767c.3 0 .526-.073.752-.218.225-.145.45-.363.676-.653.225-.29.376-.726.45-1.234.151-.508.151-1.161.151-1.96 0-.798-.075-1.379-.15-1.96-.15-.508-.3-.943-.451-1.234a1.735 1.735 0 0 0-.601-.653 1.24 1.24 0 0 0-.676-.218c-.301 0-.602.073-.827.218a2.25 2.25 0 0 0-.601.58c-.225.219-.376.509-.526.8v5.37c.15.218.225.363.45.509.151.145.301.29.527.363.225.217.526.29.826.29zM115.858 18.842c-.225.58-.376 1.016-.601 1.379-.225.363-.376.653-.601.943a4.131 4.131 0 0 1-.676.508c-.226.073-.451.146-.752.146h-.451c-.075 0-.15 0-.15-.073l-.3-1.38c.075 0 .075.073.15.073h.451c.751 0 1.352-.145 1.728-.435.376-.29.6-.653.826-1.234l.526-1.524-3.38-7.84-1.128-.29V8.97h3.907v.145l-1.052.29 2.48 5.735 2.029-5.59-1.278-.435V8.97h2.93v.145l-1.277.436zM123.37 17.24c.601 0 1.127-.218 1.578-.58.375-.364.6-.944.6-1.598 0-.653-.225-1.234-.6-1.597-.376-.362-.902-.58-1.578-.58h-.376v-.363h.376c.601 0 1.052-.145 1.352-.436.3-.29.451-.726.451-1.234s-.15-.943-.45-1.234c-.301-.29-.602-.435-.902-.435-.526 0-.977.218-1.428.726-.45.435-.826 1.161-1.052 2.032h-.3c0-.145 0-.29.075-.508 0-.145 0-.29.075-.508V9.836c0-.145 0-.29-.075-.435 0-.145 0-.363-.075-.508h.3c.15.072.3.145.45.29.151.145.302.29.302.508.15-.145.3-.29.525-.436.15-.072.376-.217.602-.29.225-.072.526-.145.826-.145.376 0 .751.073 1.127.145.3.145.601.29.827.436.225.217.375.435.526.653.15.218.225.508.225.798 0 .436-.15.799-.376 1.017-.3.217-.6.435-.901.58-.376.145-.827.218-1.278.29.601.073 1.127.146 1.578.364.226.072.376.217.601.29.15.145.376.218.526.435.15.146.226.363.376.581.075.218.15.436.15.726 0 .363-.075.653-.225.944-.15.29-.376.58-.676.798a4.03 4.03 0 0 1-1.127.58c-.451.146-.977.218-1.578.218a3.62 3.62 0 0 1-1.278-.217 4.096 4.096 0 0 1-.976-.508c-.226-.218-.451-.436-.602-.726a1.88 1.88 0 0 1-.225-.871c0-.581.15-1.017.45-1.307.301-.29.602-.435 1.053-.435h.525l-.525 1.161c-.451 0-.752.073-.977.218-.225.145-.3.363-.3.653 0 .145.075.29.15.508.15.145.3.363.526.508.225.145.45.29.751.363.3.145.601.218.977.218zM132.387 8.75c.45 0 .977.073 1.352.29.451.218.827.508 1.203.871.375.363.6.871.826 1.38.226.58.3 1.16.3 1.887 0 .726-.074 1.306-.3 1.887-.225.58-.45 1.016-.826 1.38-.376.362-.752.652-1.203.87-.45.218-.901.29-1.352.29-.526 0-.977-.072-1.428-.29-.45-.218-.826-.508-1.202-.87-.376-.364-.601-.872-.826-1.38-.226-.58-.301-1.161-.301-1.887s.075-1.307.3-1.888c.226-.58.451-1.016.827-1.379.376-.363.751-.653 1.202-.87.451-.146.977-.291 1.428-.291zm0 .29c-.225 0-.45.073-.676.218a1.729 1.729 0 0 0-.601.653c-.15.29-.376.726-.451 1.234-.15.508-.15 1.162-.15 1.96 0 .799.075 1.452.15 1.96.15.508.3.944.45 1.234.15.29.376.58.602.653.225.145.45.218.676.218.225 0 .45-.073.676-.218.226-.145.451-.363.601-.653.15-.29.376-.726.451-1.234.15-.508.15-1.161.15-1.96 0-.798-.075-1.452-.15-1.96-.15-.508-.3-.943-.45-1.234-.151-.29-.376-.58-.602-.653a1.24 1.24 0 0 0-.676-.218zM137.65 17.17l1.127-.29V9.475l-1.127-.29V9.04h3.381c.601 0 1.052.073 1.503.145.45.073.751.218 1.052.436.3.145.45.363.601.58.15.218.15.436.15.726 0 .363-.15.653-.375.944-.3.218-.601.363-.902.508-.376.145-.827.218-1.277.29.6.073 1.202.145 1.653.363.225.073.375.145.6.29.226.146.376.218.527.436.15.145.3.363.375.508.076.218.15.436.15.653 0 .29-.074.581-.225.944-.15.29-.375.58-.751.798-.3.218-.751.436-1.277.509-.526.145-1.128.217-1.804.217h-3.381zm2.705-7.767v3.049h.676c1.127 0 1.728-.509 1.728-1.525s-.6-1.524-1.728-1.524zm0 7.549h.676c.752 0 1.278-.218 1.728-.58.376-.364.602-.872.602-1.525 0-.653-.226-1.162-.602-1.524a3.024 3.024 0 0 0-1.728-.509h-.676zM149.751 12.089c.676 0 1.278.072 1.804.217.526.146.976.29 1.277.581.3.218.601.508.751.798.15.29.226.654.226 1.017 0 .363-.075.726-.226 1.016-.15.29-.375.58-.751.798-.3.218-.751.436-1.277.581-.526.145-1.128.218-1.804.218h-3.381v-.145l1.127-.29V9.475l-1.127-.29V9.04h3.907v.145l-1.127.29v2.614zm-.676.363v4.5h.676c.752 0 1.278-.218 1.728-.58.376-.364.602-.944.602-1.67s-.226-1.307-.602-1.67c-.375-.363-.976-.58-1.728-.58zm7.74 4.427l1.126.29v.146h-3.907v-.145l1.127-.29V9.475l-1.127-.29V9.04h3.907v.145l-1.127.29zM161.399 15.135c.15.508.3.944.45 1.234.226.29.451.508.677.653.225.145.526.218.751.218.3 0 .676-.073.977-.145.3-.145.526-.29.827-.508.225-.218.45-.436.6-.726.15-.29.226-.58.301-.944h.3c-.074.363-.15.726-.375 1.089-.15.363-.376.58-.676.871-.3.218-.601.436-.977.58a3.107 3.107 0 0 1-1.127.218c-.526 0-.977-.072-1.428-.29-.45-.218-.826-.508-1.202-.87-.376-.364-.601-.872-.826-1.38-.226-.58-.301-1.161-.301-1.887s.075-1.38.3-1.888c.226-.58.451-1.016.752-1.379a3.31 3.31 0 0 1 1.127-.87c.45-.218.827-.291 1.353-.291.45 0 .901.073 1.352.29.45.218.751.436 1.127.871.3.363.601.799.751 1.38.226.58.301 1.16.301 1.887h-5.184c.004.761.077 1.324.15 1.887zm1.653-6.097c-.226 0-.376.072-.601.145a1.36 1.36 0 0 0-.526.58c-.15.291-.3.654-.451 1.162-.075.508-.15 1.161-.226 1.887h3.457c0-.726-.075-1.379-.226-1.814-.075-.509-.225-.871-.45-1.162-.15-.29-.376-.508-.526-.58-.076-.146-.3-.218-.451-.218zM176.792 17.172v.145h-3.982v-.145l1.127-.29V5.196l-1.127-.29V4.76h9.543v.145l-1.127.29v11.687l1.127.29v.145h-3.983v-.145l1.127-.29V5.122h-3.907v11.76zM184.912 9.473l-1.127-.29v-.145h2.705v1.089c.15-.218.3-.436.526-.654.15-.145.451-.29.677-.435.3-.145.6-.218.976-.218s.827.073 1.203.29a3.92 3.92 0 0 1 1.052.871c.3.363.6.871.751 1.38.225.58.3 1.16.3 1.887 0 .726-.075 1.306-.3 1.887-.225.58-.45 1.016-.827 1.38-.3.362-.751.652-1.127.87-.45.218-.901.29-1.352.29-.376 0-.676-.072-.977-.145-.225-.072-.45-.217-.601-.29-.225-.145-.376-.29-.45-.436v4.5l1.126.291v.145h-3.907v-.145l1.127-.29V9.473zm3.307 7.767c.3 0 .526-.073.751-.218.225-.145.45-.363.676-.653.226-.29.376-.726.451-1.234.15-.508.15-1.161.15-1.96 0-.798-.075-1.379-.15-1.96-.15-.508-.3-.943-.45-1.234a1.735 1.735 0 0 0-.602-.653 1.24 1.24 0 0 0-.676-.218c-.3 0-.601.073-.827.218a2.25 2.25 0 0 0-.6.58c-.226.219-.376.509-.527.8v5.37c.15.218.226.363.451.509.15.145.3.29.526.363.225.217.526.29.827.29zM198.664 9.258v-.145h3.757v.145l-1.127.29v7.404l1.127.29v.145h-3.757v-.217l1.052-.29v-5.953l-3.381 4.863v1.09l1.052.29v.145h-3.757v-.145l1.127-.29V9.475l-1.127-.29V9.04h3.757v.145l-1.052.29v5.662l3.381-4.863v-.798zM213.012 16.952c0 .145-.075.218-.075.363v2.105c0 .145 0 .29.075.435h-.225c-.3-.29-.601-.653-.902-1.089a3.282 3.282 0 0 1-.376-1.524h-7.739v-.072l1.127-.29V9.475l-1.127-.29V9.04h3.757v.145l-1.052.29v7.477h3.306V9.476l-1.052-.29V9.04h3.757v.145l-1.127.29v7.477zM215.949 15.135c.15.508.3.944.45 1.234.226.29.451.508.677.653.225.145.526.218.751.218.3 0 .676-.073.977-.145.3-.145.526-.29.827-.508.225-.218.45-.436.6-.726.15-.29.226-.58.301-.944h.3c-.074.363-.15.726-.375 1.089-.15.363-.376.58-.676.871-.3.218-.601.436-.977.58a3.107 3.107 0 0 1-1.127.218c-.526 0-.977-.072-1.428-.29-.45-.218-.826-.508-1.202-.87-.376-.364-.601-.872-.826-1.38-.226-.58-.301-1.161-.301-1.887s.075-1.38.3-1.888c.226-.58.451-1.016.752-1.379a3.31 3.31 0 0 1 1.127-.87c.45-.218.827-.291 1.353-.291.45 0 .901.073 1.352.29.45.218.751.436 1.127.871.3.363.601.799.751 1.38.226.58.301 1.16.301 1.887h-5.184c.004.761.077 1.324.15 1.887zm1.653-6.097c-.226 0-.376.072-.601.145-.226.145-.376.29-.526.58-.15.291-.3.654-.451 1.162a41.2 41.2 0 0 0-.226 1.815h3.457c0-.726-.075-1.38-.226-1.815-.075-.508-.225-.871-.45-1.161-.15-.29-.376-.508-.526-.581-.076-.073-.3-.145-.451-.145zM222.48 9.04h8.716v.145l-1.127.29v7.404l1.127.29v.146h-3.757v-.145l1.052-.29V9.402h-3.306v7.476l1.052.29v.146h-3.757v-.145l1.127-.29V9.475l-1.127-.29zM236.011 12.089c.676 0 1.278.072 1.804.217.526.146.976.29 1.277.581.3.218.601.508.751.798.15.29.226.654.226 1.017 0 .363-.075.726-.226 1.016-.15.29-.375.58-.751.798-.3.218-.751.436-1.277.581-.526.145-1.128.218-1.804.218h-3.381v-.145l1.127-.29V9.475l-1.127-.29V9.04h3.907v.145l-1.127.29v2.614zm-.751.363v4.5h.676c.751 0 1.277-.218 1.728-.58.376-.364.601-.944.601-1.67s-.225-1.307-.6-1.67c-.376-.363-.978-.58-1.729-.58zm7.814 4.427l1.127.29v.146h-3.907v-.145l1.127-.29V9.475l-1.127-.29V9.04h3.907v.145l-1.127.29z"/>
    <g>
        <path d="M82.853 12.621s0 .073.075.218v4.5c0 .073-.075.146-.15.146h-5.185l-1.052-1.525h-6.236v-.725H67.75v-6.46L68.2 5h10.67c.827 0 1.578.944 1.804 1.597.075.145 0 .218 0 .218l.3.435-.225.073 1.878 4.645c.076.073.15.145.15.29zm-.3 0l-.076-.362c0-.073 0-.146-.075-.218-.075 0-.075-.073-.075-.073l-1.879-4.645v-.218l.076-.073c-.076-.072-.076-.145-.15-.217a.215.215 0 0 1 0-.29c-.151-.654-.827-1.452-1.504-1.452H68.426l-.375 3.484v6.17h2.254c.15 0 .3.145.3.29v.435h5.936c.075 0 .15.073.226.145l.976 1.38h4.81zM39.87 19.884h.601V16.11h-.601z"/>
        <path d="M39.34 19.487h1.653V17.89H39.34zM39.34 20.358h1.578v-.508H39.34zM39.04 20.598h2.33v-.218h-2.33zM45.73 19.129h.376V16.08h-.376zM1.33 17.855h39.899l2.028-1.742L1.33 16.04z"/>
        <path d="M1.33 16.476l41.401.072.451-.435L1.33 16.04zM1.33 17.856h39.899l.45-.436H1.33z"/>
        <path d="M3.285 16.11l-2.029 1.815v1.379H.73v-1.597l.526-1.597z"/>
        <path d="M.806 19.234h-.45l-.076-.072v-1.38l.075-.072h.451l.075.073z"/>
        <path d="M.806 19.234h-.45l-.076-.072v-1.38l.075-.072h.451l.075.073z"/>
        <path d="M.443 17.845v.363h.375v-.362z"/>
        <path d="M.499 18.044c0-.08-.034-.145-.075-.145-.042 0-.075.065-.075.145 0 .08.033.145.075.145.041 0 .075-.064.075-.145zM.806 18.36H.43v.363h.376z"/>
        <path d="M.481 18.496c0-.08-.033-.145-.075-.145-.041 0-.075.065-.075.145 0 .08.033.145.075.145.041 0 .075-.065.075-.145zM.408 18.748v.363h.375v-.362z"/>
        <path d="M.425 19.08c.042 0 .075-.065.075-.145 0-.08-.033-.145-.075-.145-.041 0-.075.065-.075.145 0 .08.034.145.075.145z"/>
        <path d="M.43 19.157c-.075-.073-.075-.073-.15-.073v-1.161c.075 0 .075-.073.075-.073H.43c0 .073.075.073.075.073v1.161c0 .073 0 .073-.075.073z"/>
        <g opacity=".2">
            <path d="M.355 19.16s-.075 0 0 0L.28 17.852s0-.073.075-.073c0 0 .075 0 .075.073l-.075 1.306c.075 0 0 0 0 0z" opacity=".04"/>
        </g>
        <path d="M.73 17.78H.58c.075 0 .075 0 .075.073v1.306s0 .073-.075.073h.15l.075-.073v-1.234c0-.072 0-.145-.075-.145zM36.96 19.129h.376V16.08h-.376zM28.27 19.129h.376V16.08h-.376z"/>
        <path d="M45.889 18.5H27.48v.944h19.461V18.5zM3.135 18.863l.602-1.234c.45-1.016 1.577-1.669 2.705-1.669h16.755c1.128 0 2.18.653 2.705 1.67l.602 1.233c.15.218.15.509.15.726v.726c0 .073-.075.218-.226.218h-.3c-.075 0-.15-.073-.15-.218v-.58c0-.218-.076-.436-.15-.654l-.527-1.089c-.375-.798-1.202-1.306-2.104-1.306H6.366c-.901 0-1.728.508-2.104 1.306l-.525 1.09c-.076.217-.15.435-.15.652v.581c0 .073-.076.145-.151.218h-.3c-.076 0-.226-.073-.226-.218v-.726c.075-.217.075-.435.225-.726z"/>
        <path d="M.11 16.156h66.498v-.726H.11z"/>
        <path d="M65.608 14.52H1.17V1.12h64.44zM.118.068v15.504H66.66V.068zM59.32 16.773h2.404v-.363H59.32z"/>
        <path d="M58.78 16.446h3.682v-.436H58.78zM67.401 15.466h1.984v2.09h-1.984z"/>
        <path d="M49.418 17.05l1.352-.58h2.555l1.427 1.161.977 2.468h1.127l.226-2.903 7.213.072.15 2.904 1.804-.073 2.554-2.685v-.654H47.99v2.105z"/>
        <path d="M54.902 17.631H69.93l1.202-.871H53.7zM68.6 4.86h9.092v-.29H68.6z"/>
        <path d="M72.261 15.82l-1.653 1.67a3.006 3.006 0 0 0-.902 1.887l-.15 1.379h-.526V15.82zM47.69 19.303s.15.653.15 1.161-.15 1.307-.15 1.38c0 .072.3-.218.3-.364.076-.217.15-.58.226-1.088.075-1.09-.3-1.452-.3-1.452z"/>
        <path d="M69.102 16.69v4.065h-.3v-.436c0-.29-.226-.435-.451-.435h-.977c-.3 0-.45.218-.45.435v.436H65.27V16.69z"/>
        <path d="M68.356 20.686a.37.37 0 0 0 .375-.363.37.37 0 0 0-.375-.363.37.37 0 0 0-.376.363c0 .2.168.363.376.363zM67.376 20.686a.37.37 0 0 0 .375-.363.37.37 0 0 0-.375-.363.37.37 0 0 0-.376.363c0 .2.168.363.376.363zM74.887 7.83H71.13v.363h3.757zM71.13 8.27v.363h3.757V8.27zM71.13 8.78v.363h3.757V8.78zM71.13 9.21v.363h3.757V9.21zM71.13 9.65v.436h3.757V9.65zM67.95 15.78h2.48v-9h-2.48zM80.375 7.33l1.653 4.065c0 .072.15.145.226.145h.225l.15.29h-.375c-.076 0-.226-.072-.226-.145L80.3 7.33zM76.62 13.06c-.15 0-.3.145-.3.29v.654c0 .145.15.29.3.29s.301-.145.301-.29v-.654c-.075-.145-.15-.29-.3-.29zM52.574 16.11h-1.578c-1.127 0-2.179.653-2.705 1.67l-.676 1.379c-.075.072-.075.217-.075.29v.145c0 .073.075.073.075.073h.376c.075 0 .15-.073.15-.145v-.146l.676-1.379c.376-.798 1.203-1.306 2.104-1.306h1.503c.902 0 1.728.508 2.104 1.306l.526 1.089c.075.218.15.436.15.653v.654c0 .072.075.145.15.217h.301c.075 0 .225-.072.225-.217v-.726c0-.29-.075-.508-.15-.726l-.601-1.162c-.376-1.016-1.428-1.669-2.555-1.669zM80.823 11.099l-1.202-3.194c0-.072-.075-.145-.15-.145h-3.006c-.075 0-.075 0-.075.073v2.83s0 .073.075.073l3.231 1.016h1.127c.075 0 .075-.072.075-.072.075-.073 0-.436-.075-.581zM47.99 17.921h-.3V16.76h.3v1.161c.076-.072.076 0 0 0z"/>
        <path d="M47.99 17.921h-.3V16.76h.3v1.161c.076-.072.076 0 0 0z"/>
        <path d="M47.985 16.84h-.225v.29h.225z"/>
        <path d="M47.765 17.13c.042 0 .075-.065.075-.145 0-.08-.033-.145-.075-.145-.041 0-.075.065-.075.145 0 .08.034.145.075.145zM47.985 17.2h-.225v.29h.225z"/>
        <path d="M47.765 17.49c.042 0 .075-.065.075-.145 0-.08-.033-.145-.075-.145-.041 0-.075.065-.075.145 0 .08.034.145.075.145zM47.985 17.56h-.225v.29h.225z"/>
        <path d="M47.765 17.85c.042 0 .075-.065.075-.145 0-.08-.033-.145-.075-.145-.041 0-.075.065-.075.145 0 .08.034.145.075.145z"/>
        <path d="M47.835 17.856h-.075V16.84h.075z"/>
        <g opacity=".2">
            <path d="M47.685 17.856l-.075-1.016h.15l-.075 1.016c.075 0 .075 0 0 0z" opacity=".04"/>
        </g>
        <path d="M47.99 16.76h-.075.075l-.075 1.089s0 .072-.075.072h.075v-1.088c.15-.073.15-.073.075-.073z"/>
        <g>
            <path d="M79.414 7.555h.541v.174h-.54z"/>
        </g>
        <g>
            <path d="M81.103 11.969h.54v.174h-.54z"/>
        </g>
        <g>
            <path d="M76.762 19.959v.145h.075l-.075.363h-.075c-.075.073-.075.073-.075.145h.075l-.15.363h-.076c0 .073-.075.073-.075.145h.075l-.225.363h-.075l-.075.073.075.072-.3.29-.076-.072-.075.073.075.072-.3.29-.076-.072s0 .073-.075.073v.072l-.375.218v-.073c-.076 0-.076.073-.15.073v.073l-.376.145v-.073c-.076.073-.076.073-.15.073v.072l-.376.073v-.073h-.15v.073h-.376v-.073h-.15v.073l-.376-.073v-.072c-.075-.073-.075-.073-.15-.073v.073l-.376-.145v-.073c-.075 0-.075-.073-.15-.073v.073l-.376-.218v-.072l-.075-.073-.076.073-.3-.29.075-.073-.075-.073-.075.073-.3-.29.074-.073s-.075 0-.075-.073h-.075l-.225-.363h.075c0-.072-.075-.072-.075-.145H70.6l-.15-.363h.074c-.075-.072-.075-.072-.075-.145h-.075l-.075-.363h.075v-.145H70.3v-.363h.075v-.145H70.3l.075-.363h.075c.075-.073.075-.073.075-.145h-.075l.15-.363h.076c0-.073.075-.073.075-.145h-.075l.225-.363h.075l.075-.073-.075-.072.3-.29.076.072.075-.073-.075-.072.3-.29.076.072s0-.073.075-.073v-.072l.375-.218v.073c.076 0 .076-.073.15-.073v-.073l.376-.145v.073c.076-.073.076-.073.15-.073v-.072l.376-.073v.073h.15v-.073h.376v.073h.15v-.073l.376.073v.072c.075.073.075.073.15.073v-.073l.376.145v.073c.075 0 .075.073.15.073v-.073l.376.218v.072l.075.073.076-.073.3.29-.075.073.075.073.075-.073.3.29-.074.073s.075 0 .075.073h.075l.225.363h-.075c0 .072.075.072.075.145h.076l.15.363h-.075c.075.072.075.072.075.145h.075l.075.363h-.075v.145h.075v.363zm-.827-.218c0-1.161-.976-2.105-2.179-2.105-1.202 0-2.179.944-2.179 2.105 0 1.162.977 2.105 2.18 2.105 1.202 0 2.178-.943 2.178-2.105zm-.45 0c0 .944-.752 1.67-1.729 1.67-.976 0-1.728-.726-1.728-1.67 0-.943.752-1.67 1.728-1.67.902 0 1.729.727 1.729 1.67z"/>
        </g>
        <g>
            <path d="M77.818 4.49c0 .073 0 .073-.075.146H68.2l.376-2.686s1.803.073 2.855.218c2.78.435 4.433 1.016 6.161 2.177zm-.827-.217c-1.503-.944-3.08-1.452-5.635-1.887-.752-.073-2.029-.218-2.555-.218l-.3 2.105z"/>
        </g>
        <g>
            <path d="M11.32 15.383H.2V.14h2.104z"/>
        </g>
        <g>
            <path d="M66.477 14H8.62v1.67h57.857z"/>
        </g>
        <g>
            <path d="M29.731 1.59h-.751v12.92h.751z"/>
        </g>
        <g>
            <path d="M38.141 1.52h-.751v12.92h.751z"/>
        </g>
        <g>
            <path d="M46.481 1.59h-.751v12.92h.751z"/>
        </g>
        <g>
            <path d="M54.751 1.59H54v12.92h.751z"/>
        </g>
        <g>
            <path d="M63.091 1.66h-.751v12.92h.751z"/>
        </g>
        <g>
            <path d="M13.121 1.59h-.751v12.92h.751z"/>
        </g>
        <g>
            <path d="M21.391 1.59h-.751v12.92h.751z"/>
        </g>
        <g>
            <path d="M61.663 16.91H59.86v3.63h1.803zM63.763 16.91H61.96v3.63h1.803zM59.563 16.91H57.76v3.63h1.803zM65.122 16.91H64.07v3.63h1.052z"/>
        </g>
        <g>
            <path d="M82.632 11.896l-.526-1.306v-.436h.226v-.87h-.226V8.121c0-.073-.075-.145-.15-.145v2.177l-1.052-2.54h.376l-.301-.726c-.075-.145-.15-.218-.3-.218H68.054l-.075.58h11.797c.15 0 .375.146.45.291v.073h.076c.15.435.526 1.234.901 2.25.451 1.234.677 1.887.752 2.177 0 .073.075.145.225.145h.676a1.008 1.008 0 0 0-.225-.29z"/>
        </g>
        <g>
            <path d="M79.77 7.543s-.075-.073 0 0l-.225-.073s-.075 0-.075.073v.145s0 .072.075.072h.226s.075 0 .075-.072h.15v-.073zM81.576 11.973h-.075s0-.073-.075-.073h-.3s-.076 0-.076.073v.145s0 .072.075.072h.3s.076 0 .076-.072v-.073z"/>
        </g>
        <g>
            <path d="M82.707 17.703c.076 0 .226.073.376.29v2.468c0 .073-.075.218-.15.218l-.752.218h-4.733l-.451-3.267a1.514 1.514 0 0 0-1.503-1.233H67.83V15.09h7.514c1.202 0 2.179.798 2.404 1.887h4.81v.726zm-.901 1.815h-3.983l.076.87h3.907zm0-1.307h-3.983l.076.871h3.907z"/>
        </g>
        <g>
            <path d="M54.752 19.959v.145h.075l-.075.363h-.075c-.075.073-.075.073-.075.145h.075l-.15.363h-.076c0 .073-.075.073-.075.145h.075l-.225.363h-.075l-.075.073.075.072-.3.29-.076-.072-.075.073.075.072-.3.29-.076-.072s0 .073-.075.073v.072l-.375.218v-.073c-.076 0-.076.073-.15.073v.073l-.376.145v-.073c-.076.073-.076.073-.15.073v.072l-.376.073v-.073h-.15v.073h-.376v-.073h-.15v.073l-.376-.073v-.072c-.075-.073-.075-.073-.15-.073v.073l-.376-.145v-.073c-.075 0-.075-.073-.15-.073v.073l-.376-.218v-.072l-.075-.073-.075.073-.301-.29.075-.073-.075-.073-.075.073-.3-.29.074-.073s-.075 0-.075-.073h-.075l-.225-.363h.075c0-.072-.075-.072-.075-.145h-.075l-.15-.363h.074c-.075-.072-.075-.072-.075-.145h-.075l-.075-.363h.075v-.145h-.075v-.363h.075v-.145h-.075l.075-.363h.075c.075-.073.075-.073.075-.145h-.075l.15-.363h.076c0-.073.075-.073.075-.145h-.075l.225-.363h.075l.075-.073-.075-.072.3-.29.076.072.075-.073-.075-.072.3-.29.076.072s0-.073.075-.073v-.072l.375-.218v.073c.076 0 .076-.073.15-.073v-.073l.376-.145v.073c.076-.073.076-.073.15-.073v-.072l.376-.073v.073h.15v-.073h.376v.073h.15v-.073l.376.073v.072c.075.073.075.073.15.073v-.073l.376.145v.073c.075 0 .075.073.15.073v-.073l.376.218v.072l.075.073.076-.073.3.29-.075.073.075.073.075-.073.3.29-.074.073s.075 0 .075.073h.075l.225.363h-.075c0 .072.075.072.075.145h.076l.15.363h-.075c.075.072.075.072.075.145h.075l.075.363h-.075v.145h.075v.363zm-.827-.218c0-1.161-.976-2.105-2.179-2.105-1.202 0-2.179.944-2.179 2.105 0 1.162.977 2.105 2.18 2.105 1.202 0 2.178-.943 2.178-2.105zm-.45 0c0 .944-.752 1.67-1.729 1.67-.976 0-1.728-.726-1.728-1.67 0-.943.752-1.67 1.728-1.67.977 0 1.729.727 1.729 1.67z"/>
        </g>
        <g>
            <path d="M25.222 20.032h.075l-.075.362h-.075c-.076.073-.076.073-.076.146h.076l-.15.363h-.076c0 .072-.075.072-.075.145h.075l-.225.363h-.075l-.076.072.15.145-.3.29-.075-.072-.075.073.075.072-.3.29-.076-.072s0 .073-.075.073v.072l-.376.218v-.073c-.075 0-.075.073-.15.073v.073l-.376.145v-.073c-.075.073-.075.073-.15.073v.072l-.375.073v-.073h-.15v.073h-.301v-.073h-.15v.073l-.376-.073v-.072c-.075-.073-.075-.073-.15-.073v.073l-.376-.145v-.073c-.075 0-.075-.073-.15-.073v.073l-.376-.218v-.072l-.075-.073-.075.073-.301-.29.075-.073-.075-.073-.075.073-.3-.29.074-.073s-.075 0-.075-.073h-.075l-.225-.363.075-.072c0-.073-.075-.073-.075-.145h-.075l-.15-.363h.074c-.075-.073-.075-.073-.075-.146h-.075l-.075-.362h.075v-.146h-.075v-.363h.075v-.145h-.075l.075-.363h.075c.075-.072.075-.072.075-.145h-.075l.15-.363h.076c0-.072.075-.072.075-.145h-.075l.075-.218h.075l.075-.072-.075-.073.3-.29.076.072.075-.072-.075-.073.3-.29.075.072s0-.072.076-.072v-.073l.375-.217v.072c.075 0 .075-.072.15-.072v-.073l.376-.145v.072c.075-.072.075-.072.15-.072v-.073l.301-.145v.073h.15v-.073h.376v.073h.15v-.073l.376.073v.072c.075.073.075.073.15.073v-.073l.376.145v.073c.075 0 .075.073.15.073v-.073l.376.218v.072l.075.073.075-.073.3.29-.074.073.075.073.075-.073.3.29-.075.073s.075 0 .075.073h.076l.225.363h-.075c0 .072.075.072.075.145h.075l.15.363h-.075c.075.072.075.072.075.145h.076l.075.363h-.075v.145h.075v.436zm-.977-.29c0-1.162-.977-2.106-2.18-2.106-1.201 0-2.178.944-2.178 2.105 0 1.162.977 2.105 2.179 2.105s2.179-.943 2.179-2.105zm-.376 0c0 .943-.751 1.669-1.728 1.669s-1.728-.726-1.728-1.67c0-.943.751-1.67 1.728-1.67.902 0 1.728.727 1.728 1.67z"/>
        </g>
        <g>
            <path d="M17.862 20.102h.075l-.075.362h-.075c-.076.073-.076.073-.076.146h.076l-.15.363h-.076c0 .072-.075.072-.075.145h.075l-.225.363h-.075l-.076.072.076.073-.301.29-.075-.072-.075.072.075.073-.3.29-.076-.072-.075.072v.073l-.376.217v-.072c-.075 0-.075.072-.15.072v.073l-.376.145v-.072c-.075.072-.075.072-.15.072v.073l-.376.072v-.072h-.15v.072h-.376v-.072h-.15v.072l-.376-.072v-.073c-.075-.072-.075-.072-.15-.072v.072l-.376-.145v-.073c-.075 0-.075-.072-.15-.072v.072l-.3-.217v-.073l-.076-.072-.075.072-.3-.29.15-.073-.075-.072-.075.072-.3-.29.074-.073-.075-.072h-.075l-.225-.363H12c0-.073-.075-.073-.075-.145h-.075l-.15-.363h.074c-.075-.073-.075-.073-.075-.146h-.075l-.075-.362h.075v-.146h-.075v-.363h.075v-.145h-.075l.075-.363h.075c.075-.072.075-.072.075-.145H11.7l.075-.29h.076c0-.073.075-.073.075-.145h-.075l.225-.363h.075l.075-.073-.075-.072.3-.29.076.072.075-.073-.075-.072.3-.218.076.072s0-.072.075-.072v-.073l.375-.217v.072c.075 0 .075-.072.15-.072v-.073l.376-.145v.072c.075-.072.075-.072.15-.072v-.073l.376-.072v.072h.15v-.072h.376v.072h.15v-.072l.226-.073v.073c.075.072.075.072.15.072v-.072l.376.145v.072c.075 0 .075.073.15.073v-.073l.376.218v.073l.075.072.075-.072.3.29-.074.073.075.072.075-.072.3.29-.075.073s.075 0 .075.072h.076l.225.363h-.075c0 .073.075.073.075.145h.075l.15.363h-.075c.075.073.075.073.075.145h.076l.075.436h-.075v.145h.075v.436zm-.977-.29c0-1.162-.977-2.106-2.18-2.106-1.201 0-2.178.944-2.178 2.105 0 1.162.977 2.105 2.179 2.105s2.179-.943 2.179-2.105zm-.451 0c0 .943-.751 1.669-1.728 1.669s-1.728-.726-1.728-1.67c0-.943.751-1.67 1.728-1.67s1.728.727 1.728 1.67z"/>
        </g>
        <g>
            <path d="M10.642 19.954v.145h.075l-.075.363h-.075c-.075.072-.075.072-.075.145h.075l-.15.363h-.076c0 .073-.075.073-.075.145h.075l-.225.363h-.075l-.075.073.075.072-.3.29-.076-.072-.075.073.075.072-.3.29-.076-.072s0 .073-.075.073v.072l-.375.218v-.073c-.076 0-.076.073-.15.073v.072l-.376.146v-.073c-.076.073-.076.073-.15.073v.072l-.376.073v-.073h-.15v.073H7.26v-.073h-.15v.073l-.376-.073v-.072c-.075-.073-.075-.073-.15-.073v.073l-.376-.146v-.072c-.075 0-.075-.073-.15-.073v.073l-.376-.218v-.072l-.075-.073-.075.073-.301-.29.075-.073-.075-.073-.075.073-.3-.29.074-.073-.075-.073H4.78l-.225-.363h.075c0-.072-.075-.072-.075-.145H4.48l-.15-.363h.074c-.075-.073-.075-.073-.075-.145h-.075l-.075-.363h.075v-.145H4.18v-.363h.075v-.145H4.18l.075-.363h.075c.075-.073.075-.073.075-.145H4.33v-.218h.075c0-.073.076-.073.076-.145h-.076l.226-.363h.075l.075-.073-.075-.072.3-.29.076.072.075-.073-.075-.072.3-.29.075.072s0-.073.076-.073v-.072l.375-.218v.073c.075 0 .075-.073.15-.073v-.073l.376-.145v.073c.075-.073.075-.073.15-.073v-.072l.376-.073v.073h.15v-.073h.376v.073h.15v-.073h.376v.073c.075.072.075.072.15.072v-.072l.376.145v.072c.075 0 .075.073.15.073v-.073l.376.218v.073l.075.072.075-.072.3.29-.074.073.075.072v-.072l.3.29-.075.073s.075 0 .075.072h.076l.225.363h-.075c0 .073.075.073.075.145h.075l.15.363h-.075c.075.073.075.073.075.145h.076l.075.363h-.075v.145h.075v.363zm-1.127-.145c0-1.162-.977-2.105-2.18-2.105-1.201 0-2.178.943-2.178 2.105 0 1.161.977 2.105 2.179 2.105s2.179-.944 2.179-2.105zm-.451 0c0 .943-.751 1.67-1.728 1.67s-1.728-.727-1.728-1.67c0-.944.751-1.67 1.728-1.67s1.728.726 1.728 1.67z"/>
        </g>
        <g>
            <path d="M57.532 17.49H56.33v2.976h1.202z"/>
        </g>
    </g>
</symbol></svg>