<svg width="25" height="25" viewBox="0 0 25 25" fill="none" xmlns="http://www.w3.org/2000/svg">
    <path d="M22.76 10.612a8.528 8.528 0 0 1-5.005-1.61v7.332a6.698 6.698 0 0 1-1.183 3.799 6.634 6.634 0 0 1-3.122 2.444 6.588 6.588 0 0 1-3.95.219 6.621 6.621 0 0 1-3.371-2.086 6.704 6.704 0 0 1-.83-7.553 6.647 6.647 0 0 1 2.836-2.776 6.592 6.592 0 0 1 3.902-.655v3.687a3.025 3.025 0 0 0-1.876.017 3.044 3.044 0 0 0-1.51 1.122 3.074 3.074 0 0 0 .02 3.593c.38.52.913.906 1.524 1.104.61.197 1.267.195 1.877-.006.609-.2 1.14-.59 1.516-1.113a3.075 3.075 0 0 0 .579-1.796V2h3.588c-.003.305.023.61.076.91a5.03 5.03 0 0 0 .761 1.873 4.996 4.996 0 0 0 1.437 1.418c.81.539 1.76.826 2.731.826v3.585z" fill="#FF005C"/>
    <path d="M21.76 9.612a8.528 8.528 0 0 1-5.005-1.61v7.332a6.698 6.698 0 0 1-1.183 3.799 6.634 6.634 0 0 1-3.122 2.444 6.588 6.588 0 0 1-3.95.219 6.621 6.621 0 0 1-3.371-2.086 6.704 6.704 0 0 1-.83-7.553A6.646 6.646 0 0 1 7.135 9.38a6.591 6.591 0 0 1 3.902-.655v3.687a3.025 3.025 0 0 0-1.876.017 3.044 3.044 0 0 0-1.51 1.122 3.074 3.074 0 0 0 .02 3.593c.38.52.913.906 1.524 1.104.61.197 1.267.195 1.877-.006.609-.2 1.14-.59 1.516-1.113a3.075 3.075 0 0 0 .579-1.796V1h3.588c-.003.305.023.61.076.91a5.03 5.03 0 0 0 .761 1.873 4.996 4.996 0 0 0 1.437 1.418c.81.539 1.76.826 2.731.826v3.585z" fill="#fff"/>
    <path d="M20.76 8.612a8.528 8.528 0 0 1-5.005-1.61v7.332a6.698 6.698 0 0 1-1.183 3.799 6.634 6.634 0 0 1-3.122 2.444 6.588 6.588 0 0 1-3.95.219 6.621 6.621 0 0 1-3.371-2.086 6.704 6.704 0 0 1-.83-7.553A6.646 6.646 0 0 1 6.135 8.38a6.591 6.591 0 0 1 3.902-.655v3.687a3.025 3.025 0 0 0-1.876.017 3.044 3.044 0 0 0-1.51 1.122 3.074 3.074 0 0 0 .02 3.593c.38.52.913.906 1.524 1.104.61.197 1.267.195 1.877-.006.609-.2 1.14-.59 1.516-1.113a3.075 3.075 0 0 0 .579-1.796V0h3.588c-.003.305.023.61.076.91a5.03 5.03 0 0 0 .761 1.873 4.996 4.996 0 0 0 1.437 1.418c.81.539 1.76.826 2.731.826v3.585z" fill="#0FF" style="mix-blend-mode:lighten"/>
</svg>
