<svg width="250" height="68" viewBox="0 0 250 68" fill="none" xmlns="http://www.w3.org/2000/svg">
<g clip-path="url(#clip0_1_2)">
<rect width="250" height="67.1476" fill="white"/>
<mask id="mask0_1_2" style="mask-type:luminance" maskUnits="userSpaceOnUse" x="0" y="0" width="249" height="68">
<path d="M0 0H248.814V67.1476H0V0Z" fill="white"/>
</mask>
<g mask="url(#mask0_1_2)">
<path d="M27.0878 9.67868H40.6312V56.9111H27.0878V9.67868Z" fill="black"/>
<path d="M248.814 0H75.457V4.64581H248.814V0Z" fill="#EF3246"/>
<path d="M248.814 47.232H75.457V66.9767H248.814V47.232Z" fill="#EF3246"/>
<path d="M2.51514 2.51639H65.2022V64.4604H2.51514V2.51639Z" stroke="#EF3246" stroke-width="6.14619"/>
<path d="M75.457 10.8402H88.4392V41.0378H75.457V10.8402Z" fill="white"/>
<path d="M132.644 10.8402V41.0378H121.973L107.34 27.3195V41.0378H94.6882V10.8402H105.36L119.992 24.5586V10.8402H132.644Z" fill="black"/>
<path d="M147.261 18.7347H135.984V10.8402H171.518V18.7347H160.242V41.0378H147.261V18.7347Z" fill="black"/>
<path d="M206.906 33.3591V41.0378H174.891V10.8402H206.19V18.519H187.653V22.0565H206.19V29.3902H187.653V33.3591H206.906Z" fill="black"/>
<path d="M228.406 33.4454H224.886V41.0378H211.903V10.8402H230.441C233.998 10.8402 237.097 11.3003 239.737 12.2206C242.377 13.141 244.413 14.4639 245.842 16.1895C247.273 17.9152 247.988 19.9282 247.988 22.2291C247.988 24.386 247.366 26.2698 246.117 27.8802C244.871 29.4909 243.074 30.7707 240.728 31.7197L248.814 41.0378H234.951L228.406 33.4454ZM234.898 22.2291C234.898 21.1074 234.456 20.2447 233.577 19.6407C232.696 19.008 231.376 18.6915 229.616 18.6915H224.886V25.7664H229.616C231.376 25.7664 232.696 25.4646 233.577 24.8606C234.456 24.2279 234.898 23.3508 234.898 22.2291Z" fill="black"/>
<path d="M90.3798 62.3308H87.958V52.8999H90.3798V62.3308ZM93.1045 54.4562H85.226V52.4352H93.1045V54.4562Z" fill="white"/>
<path d="M118.226 62.3308H115.742L115.548 60.4648C115.517 60.1344 115.454 59.866 115.355 59.6595C115.257 59.448 115.107 59.293 114.906 59.195C114.705 59.0918 114.437 59.04 114.101 59.04L111.865 59.0323V57.1817L114.194 57.174C114.7 57.174 115.064 57.0631 115.286 56.8411C115.508 56.619 115.618 56.2862 115.618 55.8423V55.6874C115.618 55.2486 115.508 54.9209 115.286 54.704C115.069 54.4821 114.702 54.3711 114.187 54.3711H111.849V52.4352H114.534C115.747 52.4352 116.632 52.6701 117.189 53.14C117.752 53.6097 118.033 54.2858 118.033 55.1685V55.3699C118.033 56.0359 117.862 56.5546 117.522 56.9262C117.181 57.2979 116.663 57.5096 115.967 57.5613V57.9019L115.471 57.5688C116.07 57.6101 116.534 57.734 116.865 57.9407C117.194 58.147 117.437 58.4361 117.591 58.8077C117.752 59.1743 117.868 59.6311 117.94 60.1784L118.226 62.3308ZM112.554 62.3308H110.185V52.4352H112.538V57.8477L112.554 58.7459V62.3308Z" fill="white"/>
<path d="M137.071 62.3308H134.625L137.458 52.4352H141.095L143.912 62.3308H141.467L139.369 54.0303H139.191L137.071 62.3308ZM141.49 60.0003H137.032V58.1186H141.49V60.0003Z" fill="white"/>
<path d="M163.206 52.4352V62.3308H160.776V52.4352H163.206Z" fill="white"/>
<path d="M183.22 52.4352V62.3308H180.797V52.4352H183.22ZM182.174 62.3308V60.2944H187.344V62.3308H182.174Z" fill="white"/>
<path d="M206.782 62.3308H204.414V52.4352H206.782V62.3308ZM211.341 62.3308H205.119V60.31H211.341V62.3308ZM211.154 58.2813H205.8V56.3379H211.154V58.2813ZM211.272 54.4331H205.111V52.4352H211.272V54.4331Z" fill="white"/>
<path d="M236.693 62.3308H234.208L234.015 60.4648C233.983 60.1344 233.919 59.866 233.822 59.6595C233.723 59.448 233.574 59.293 233.372 59.195C233.171 59.0918 232.903 59.04 232.567 59.04L230.331 59.0323V57.1817L232.659 57.174C233.166 57.174 233.53 57.0631 233.752 56.8411C233.973 56.619 234.084 56.2862 234.084 55.8423V55.6874C234.084 55.2486 233.973 54.9209 233.752 54.704C233.535 54.4821 233.168 54.3711 232.653 54.3711H230.315V52.4352H233C234.213 52.4352 235.099 52.6701 235.656 53.14C236.218 53.6097 236.498 54.2858 236.498 55.1685V55.3699C236.498 56.0359 236.329 56.5546 235.988 56.9262C235.648 57.2979 235.129 57.5096 234.433 57.5613V57.9019L233.938 57.5688C234.535 57.6101 235 57.734 235.331 57.9407C235.661 58.147 235.903 58.4361 236.057 58.8077C236.218 59.1743 236.334 59.6311 236.406 60.1784L236.693 62.3308ZM231.02 62.3308H228.651V52.4352H231.005V57.8477L231.02 58.7459V62.3308Z" fill="white"/>
</g>
</g>
<defs>
<clipPath id="clip0_1_2">
<rect width="250" height="67.1476" fill="white"/>
</clipPath>
</defs>
</svg>
