<svg width="176" height="30" viewBox="0 0 176 30" fill="none" xmlns="http://www.w3.org/2000/svg">
<path d="M19.9578 0L10 10.0281H19.9578V30L30 20.0562V0H19.9578Z" fill="#E86630"/>
<path d="M10.0422 30L20 19.9719H10.0422V0L0 9.94382V30H10.0422Z" fill="#2C2D84"/>
<path d="M41 5V25H46.1967V9.53782H54.1593V25H59.3559V5H41Z" fill="#2C2D84"/>
<path d="M90.5634 20.7806H86.7234V16.8143H90.5634C91.7889 16.8143 93.0144 17.3207 93.0144 18.8397C92.9327 20.2743 91.7889 20.7806 90.5634 20.7806ZM91.0536 12.5105H86.7234V9.47257H96.4459V5H81.5762V25H91.217C95.057 25 97.9982 22.9747 97.9982 18.7553C98.0799 14.5359 95.1387 12.5105 91.0536 12.5105Z" fill="#2C2D84"/>
<path d="M71.7895 20.6274C68.3169 20.6274 66.4153 18.1445 66.4153 14.9994C66.4153 12.5165 67.8208 9.3714 71.7068 9.3714C74.1046 9.3714 75.6755 10.8612 76.2543 11.5233L79.3962 8.37822C77.4945 6.14357 74.6834 4.65381 71.4588 4.65381C65.7538 4.65381 61.2891 8.87481 61.2891 14.9994C61.2891 20.7102 65.7538 25.345 71.4588 25.345C74.8487 25.345 77.9079 23.6897 79.7269 21.124L76.585 17.9789C75.5928 19.4687 73.9392 20.6274 71.7895 20.6274Z" fill="#2C2D84"/>
<path d="M109.769 26.2332V2L108 3.76683V28L109.769 26.2332Z" fill="#2C2D84"/>
<path d="M117.432 18.5337C118.648 18.714 119.385 18.2453 119.385 16.0818V9.69959H126.902V20.5169H124.728V11.7549H121.559V16.0457C121.559 19.94 119.496 20.7332 117.432 20.5169V18.5337Z" fill="#2C2D84"/>
<path d="M135.339 13.9183L130.623 20.5169H128.965V9.69959H131.139V16.2981L135.855 9.69959H137.513V20.5169H135.339V13.9183Z" fill="#2C2D84"/>
<path d="M146.872 17.488C146.872 19.4352 145.214 20.7332 142.856 20.7332C140.571 20.7332 139.356 19.6515 138.729 18.1731L140.608 17.1275C140.866 17.9928 141.493 18.714 142.856 18.714C144.072 18.714 144.698 18.1731 144.698 17.3438C144.698 16.5145 144.072 15.9736 142.893 15.9736H141.529V14.0626H142.561C143.667 14.0626 144.293 13.5577 144.293 12.7645C144.293 12.0073 143.777 11.4664 142.745 11.4664C141.603 11.4664 141.05 12.1154 140.756 12.8366L138.913 11.7909C139.54 10.4928 140.719 9.48322 142.745 9.48322C144.919 9.48322 146.467 10.7452 146.467 12.6202C146.467 13.5938 146.025 14.3871 145.288 14.8919C146.246 15.4327 146.872 16.2981 146.872 17.488Z" fill="#2C2D84"/>
<path d="M154.683 13.9183L149.967 20.5169H148.309V9.69959H150.483V16.2981L155.199 9.69959H156.857V20.5169H154.683V13.9183Z" fill="#2C2D84"/>
<path d="M167.321 9.69959V20.5169H165.148V16.0457H161.058V20.5169H158.884V9.69959H161.058V13.9905H165.148V9.69959H167.321Z" fill="#2C2D84"/>
<path d="M175.648 11.7549H171.559V20.5169H169.385V9.69959H175.648V11.7549Z" fill="#2C2D84"/>
</svg>
