<svg width="336" height="93" viewBox="0 0 336 93" fill="none" xmlns="http://www.w3.org/2000/svg">
<path d="M334.217 51.0403L333.913 49.5744C333.913 48.988 333.61 48.6949 333.307 48.4017L325.719 29.6381L326.63 29.3449C326.63 29.3449 326.023 28.4654 325.416 27.5858C325.416 27.5858 325.719 27.2926 325.416 26.7063C324.505 24.0676 321.47 20.2563 318.132 20.2563C307.51 20.2563 286.569 20.2563 283.837 20.2563H275.036L273.215 35.5017V61.5948H283.534V64.5267H308.724L312.972 70.6835H333.913C334.217 70.6835 334.52 70.3903 334.52 70.0971V51.9199C334.217 51.3335 334.217 51.0403 334.217 51.0403ZM333.003 68.6312H313.579L309.634 63.0607C309.331 62.7676 309.027 62.4744 308.724 62.4744H284.748V60.7153C284.748 60.1289 284.141 59.5426 283.534 59.5426H274.429V34.6222L275.946 20.5495H318.132C320.863 20.5495 323.595 23.7745 324.202 26.4131C323.898 26.7063 323.898 27.2926 324.202 27.5858C324.505 27.879 324.505 28.1722 324.809 28.4654L324.505 28.7585C324.505 29.0517 324.505 29.3449 324.505 29.6381L332.093 48.4017C332.093 48.4017 332.093 48.6949 332.396 48.6949C332.7 48.9881 332.7 49.2812 332.7 49.5744L333.003 51.0403V51.3335V68.6312Z" fill="white"/>
<path d="M160.594 80.3509H163.022V65.1054H160.594V80.3509Z" fill="white"/>
<path d="M158.468 78.7679H165.145V72.3179H158.468V78.7679Z" fill="white"/>
<path d="M158.469 82.2857H164.843V80.2334H158.469V82.2857Z" fill="white"/>
<path d="M157.256 83.2277H166.664V82.3482H157.256V83.2277Z" fill="white"/>
<path d="M184.267 77.3278H185.785V65.0142H184.267V77.3278Z" fill="white"/>
<path d="M4.92651 72.149H166.082L174.276 65.1127L4.92651 64.8195V72.149Z" fill="white"/>
<path d="M4.92651 66.5786L172.151 66.8718L173.972 65.1127L4.92651 64.8195V66.5786Z" fill="white"/>
<path d="M4.92627 72.1493H166.081L167.902 70.3902H4.92627V72.1493Z" fill="white"/>
<path d="M12.8173 65.1125L4.62299 72.4421V78.0125H2.49854V71.5625L4.62299 65.1125H12.8173Z" fill="white"/>
<path d="M2.80194 77.7191H0.980978C0.980978 77.7191 0.980982 77.7191 0.67749 77.4259V71.8555C0.67749 71.8555 0.677486 71.8555 0.980978 71.5623H2.80194C2.80194 71.5623 2.80193 71.5623 3.10542 71.8555L2.80194 77.7191Z" fill="white"/>
<path d="M2.80194 77.7191H0.980978C0.980978 77.7191 0.980982 77.7191 0.67749 77.4259V71.8555C0.67749 71.8555 0.677486 71.8555 0.980978 71.5623H2.80194C2.80194 71.5623 2.80193 71.5623 3.10542 71.8555L2.80194 77.7191Z" fill="white"/>
<path d="M1.3553 72.125L1.35327 73.5909L2.87074 73.5929L2.87277 72.127L1.3553 72.125Z" fill="white"/>
<path d="M1.5806 72.9298C1.58115 72.606 1.44572 72.3432 1.27811 72.343C1.1105 72.3427 0.97419 72.605 0.973644 72.9288C0.973099 73.2527 1.10852 73.5154 1.27613 73.5157C1.44374 73.5159 1.58006 73.2536 1.5806 72.9298Z" fill="white"/>
<path d="M2.8024 74.2006H1.28491V75.6665H2.8024V74.2006Z" fill="white"/>
<path d="M1.50862 74.7541C1.50916 74.4302 1.37372 74.1675 1.20611 74.1672C1.03849 74.167 0.902171 74.4293 0.901624 74.7531C0.901078 75.077 1.03651 75.3397 1.20413 75.34C1.37175 75.3402 1.50807 75.0779 1.50862 74.7541Z" fill="white"/>
<path d="M1.21116 75.7732L1.20947 77.2391L2.72694 77.2407L2.72863 75.7748L1.21116 75.7732Z" fill="white"/>
<path d="M1.28446 77.1329C1.45207 77.1329 1.58795 76.8704 1.58795 76.5465C1.58795 76.2227 1.45207 75.9601 1.28446 75.9601C1.11684 75.9601 0.980957 76.2227 0.980957 76.5465C0.980957 76.8704 1.11684 77.1329 1.28446 77.1329Z" fill="white"/>
<path d="M1.28448 77.4259C0.980984 77.1327 0.980982 77.1327 0.67749 77.1327V72.4418C0.980982 72.4418 0.980977 72.1487 0.980977 72.1487H1.28448C1.28448 72.4418 1.58796 72.4418 1.58796 72.4418V77.1327C1.58796 77.4259 1.58797 77.4259 1.28448 77.4259Z" fill="white"/>
<g opacity="0.2">
<path opacity="0.2" d="M0.980973 77.4261C0.980973 77.4261 0.677486 77.4261 0.980973 77.4261L0.67749 72.1488C0.67749 72.1488 0.677486 71.8556 0.980973 71.8556C0.980973 71.8556 1.28447 71.8556 1.28447 72.1488L0.980973 77.4261C1.28446 77.4261 0.980973 77.4261 0.980973 77.4261Z" fill="white"/>
</g>
<path d="M2.49858 71.8556H1.8916C2.19509 71.8556 2.1951 71.8556 2.1951 72.1488V77.4261C2.1951 77.4261 2.19509 77.7192 1.8916 77.7192H2.49858L2.80207 77.4261V72.442C2.80207 72.1488 2.80207 71.8556 2.49858 71.8556Z" fill="white"/>
<path d="M148.858 77.3278H150.375V65.0141H148.858V77.3278Z" fill="white"/>
<path d="M113.752 77.3278H115.27V65.0141H113.752V77.3278Z" fill="white"/>
<path d="M184.898 74.7877H180.042H176.097H171.241H166.992H158.19H153.335H149.086H144.23H140.284H135.428H131.18H126.324H122.075H117.219H113.273H110.542V77.1332V78.5991H114.791H119.647H123.592H128.448H132.697H137.553H141.802H146.658H150.603H155.459H159.708H164.564H168.509H173.365H177.614H182.47H186.415H189.147V77.1332V74.7877H184.898Z" fill="white"/>
<path d="M12.2105 76.2534L14.6385 71.2693C16.4594 67.1648 21.0118 64.5262 25.5643 64.5262H93.2433C97.7957 64.5262 102.045 67.1648 104.169 71.2693L106.597 76.2534C107.204 77.133 107.204 78.3057 107.204 79.1852V82.117C107.204 82.4102 106.901 82.9966 106.294 82.9966H105.08C104.776 82.9966 104.473 82.7034 104.473 82.117V79.7716C104.473 78.892 104.169 78.0125 103.866 77.133L101.741 72.7352C100.224 69.5102 96.8853 67.458 93.2433 67.458H89.9049H25.2608C21.6188 67.458 18.2804 69.5102 16.7629 72.7352L14.6385 77.133C14.335 78.0125 14.0315 78.892 14.0315 79.7716V82.117C14.0315 82.4102 13.728 82.7034 13.4245 82.9966H12.2105C11.907 82.9966 11.3 82.7034 11.3 82.117V79.1852C11.6035 78.3057 11.6035 77.4261 12.2105 76.2534Z" fill="white"/>
<path d="M-6.10352e-05 65.3108L268.592 65.3108V62.3789L-6.10352e-05 62.3789V65.3108Z" fill="white"/>
<path fill-rule="evenodd" clip-rule="evenodd" d="M264.57 4.56775H4.29287V58.6949H264.57V4.56775ZM0.0446777 0.31955V62.9431H268.819V0.31955H0.0446777Z" fill="white"/>
<path d="M239.166 67.8108H248.878V66.3449H239.166V67.8108Z" fill="white"/>
<path d="M236.985 66.4573H251.856V64.6982H236.985V66.4573Z" fill="white"/>
<path d="M271.808 62.5154H279.82V70.959H271.808V62.5154Z" fill="white"/>
<path d="M199.163 68.9235L204.626 66.5781H214.944L220.711 71.269L224.656 81.2372H229.208L230.119 69.5099L259.254 69.8031L259.861 81.5303L267.145 81.2372L277.464 70.3894V67.7508H193.396V76.2531L199.163 68.9235Z" fill="white"/>
<path d="M221.318 71.2698H282.017L286.873 67.7516H216.462L221.318 71.2698Z" fill="white"/>
<path d="M276.651 19.6722L313.374 19.6722V18.4995L276.651 18.4995V19.6722Z" fill="white"/>
<path d="M291.425 63.9401L284.748 70.6833C282.623 72.7356 281.409 75.3742 281.106 78.306L280.499 83.8764H278.374V75.6674V63.9401H291.425Z" fill="white"/>
<path d="M192.182 78.0124C192.182 78.0124 192.789 80.651 192.789 82.7033C192.789 84.7555 192.182 87.9805 192.182 88.2737C192.182 88.5669 193.396 87.3942 193.396 86.8078C193.699 85.9282 194.003 84.4623 194.306 82.4101C194.61 78.0124 193.092 76.5464 193.092 76.5464L192.182 78.0124Z" fill="white"/>
<path d="M278.678 67.4583V83.8764H277.464V82.1173C277.464 80.9446 276.554 80.3582 275.643 80.3582H271.698C270.484 80.3582 269.877 81.2378 269.877 82.1173V83.8764H263.2V67.4583H278.678Z" fill="white"/>
<path d="M275.643 83.5831C276.481 83.5831 277.16 82.9268 277.16 82.1172C277.16 81.3076 276.481 80.6512 275.643 80.6512C274.805 80.6512 274.125 81.3076 274.125 82.1172C274.125 82.9268 274.805 83.5831 275.643 83.5831Z" fill="white"/>
<path d="M271.698 83.5831C272.536 83.5831 273.216 82.9268 273.216 82.1172C273.216 81.3076 272.536 80.6512 271.698 80.6512C270.86 80.6512 270.181 81.3076 270.181 82.1172C270.181 82.9268 270.86 83.5831 271.698 83.5831Z" fill="white"/>
<path d="M302.047 31.6902H286.873V33.1562H302.047V31.6902Z" fill="white"/>
<path d="M286.873 33.449V34.9149H302.047V33.449H286.873Z" fill="white"/>
<path d="M286.873 35.5018V36.9677H302.047V35.5018H286.873Z" fill="white"/>
<path d="M286.873 37.2605V38.7264H302.047V37.2605H286.873Z" fill="white"/>
<path d="M286.873 39.0194V40.7785H302.047V39.0194H286.873Z" fill="white"/>
<path d="M274.038 63.8058H284.053V27.4513H274.038V63.8058Z" fill="white"/>
<path d="M324.203 29.6383L330.88 46.0565C330.88 46.3496 331.487 46.6428 331.79 46.6428H332.701L333.308 47.8155H331.79C331.487 47.8155 330.88 47.5224 330.88 47.2292L323.899 29.6383H324.203Z" fill="white"/>
<path d="M309.028 52.7992C308.421 52.7992 307.814 53.3856 307.814 53.9719V56.6105C307.814 57.1969 308.421 57.7833 309.028 57.7833C309.635 57.7833 310.242 57.1969 310.242 56.6105V53.9719C309.938 53.3856 309.635 52.7992 309.028 52.7992Z" fill="white"/>
<path d="M211.91 65.1125H205.536C200.984 65.1125 196.735 67.7512 194.61 71.8557L191.879 77.4262C191.575 77.7193 191.575 78.3057 191.575 78.5989V79.1852C191.575 79.4784 191.879 79.4784 191.879 79.4784H193.396C193.7 79.4784 194.003 79.1852 194.003 78.8921C194.003 78.5989 194.003 78.5989 194.003 78.3057L196.735 72.7353C198.252 69.5103 201.591 67.458 205.233 67.458H208.268H211.303C214.944 67.458 218.283 69.5103 219.8 72.7353L221.925 77.133C222.228 78.0125 222.532 78.8921 222.532 79.7716V82.4102C222.532 82.7034 222.835 82.9966 223.139 83.2898H224.353C224.656 83.2898 225.263 82.9966 225.263 82.4102V79.4784C225.263 78.3057 224.96 77.4262 224.656 76.5466L222.228 71.8557C220.711 67.7512 216.462 65.1125 211.91 65.1125Z" fill="white"/>
<path d="M326.023 44.8834L321.167 31.9834C321.167 31.6902 320.864 31.397 320.56 31.397H308.421C308.117 31.397 308.117 31.397 308.117 31.6902V43.1243C308.117 43.1243 308.117 43.4175 308.421 43.4175L321.471 47.522C321.774 47.522 321.774 47.522 322.078 47.522H326.023C326.327 47.522 326.327 47.2288 326.327 47.2288C326.63 46.9356 326.327 45.4697 326.023 44.8834Z" fill="white"/>
<path d="M193.401 72.4425H192.187V67.7516H193.401V72.4425C193.705 72.1493 193.705 72.4425 193.401 72.4425Z" fill="white"/>
<path d="M193.401 72.4425H192.187V67.7516H193.401V72.4425C193.705 72.1493 193.705 72.4425 193.401 72.4425Z" fill="white"/>
<path d="M193.397 68.0446H192.487V69.2173H193.397V68.0446Z" fill="white"/>
<path d="M192.482 69.2135C192.65 69.2135 192.785 68.951 192.785 68.6272C192.785 68.3033 192.65 68.0408 192.482 68.0408C192.314 68.0408 192.178 68.3033 192.178 68.6272C192.178 68.951 192.314 69.2135 192.482 69.2135Z" fill="white"/>
<path d="M193.397 69.5103H192.487V70.6831H193.397V69.5103Z" fill="white"/>
<path d="M192.486 70.6831C192.654 70.6831 192.79 70.4205 192.79 70.0967C192.79 69.7729 192.654 69.5103 192.486 69.5103C192.319 69.5103 192.183 69.7729 192.183 70.0967C192.183 70.4205 192.319 70.6831 192.486 70.6831Z" fill="white"/>
<path d="M193.397 70.9768H192.487V72.1496H193.397V70.9768Z" fill="white"/>
<path d="M192.486 72.1496C192.654 72.1496 192.79 71.887 192.79 71.5632C192.79 71.2394 192.654 70.9768 192.486 70.9768C192.319 70.9768 192.183 71.2394 192.183 71.5632C192.183 71.887 192.319 72.1496 192.486 72.1496Z" fill="white"/>
<path d="M192.791 72.1491H192.487V68.0446H192.791V72.1491Z" fill="white"/>
<g opacity="0.2">
<path opacity="0.2" d="M192.183 72.1453L191.879 68.0408C191.879 68.0408 191.879 68.0408 192.183 68.0408H192.486L192.183 72.1453C192.486 72.1453 192.486 72.1453 192.183 72.1453Z" fill="white"/>
</g>
<path d="M193.397 67.7516H193.093H193.397L193.093 72.1493C193.093 72.1493 193.093 72.4425 192.79 72.4425H193.093C193.093 72.4425 193.093 72.4425 193.093 72.1493V68.0448C193.7 67.7516 193.7 67.7516 193.397 67.7516Z" fill="white"/>
<path d="M320.327 30.5616H322.513V31.2652H320.327V30.5616Z" fill="white"/>
<path d="M327.149 48.3884H329.335V49.092H327.149V48.3884Z" fill="white"/>
<path d="M309.938 80.6516V79.1857H309.635C309.635 78.8925 309.635 78.8925 309.635 78.5993H309.938L309.635 77.1334H309.331C309.331 76.8402 309.331 76.8402 309.028 76.547H309.331L308.724 75.0811H308.421C308.421 74.7879 308.117 74.7879 308.117 74.4948H308.421L307.51 73.0288H307.207C307.207 72.7357 306.903 72.7357 306.903 72.7357L307.207 72.4425L305.993 71.2698L305.689 71.5629L305.386 71.2698L305.689 70.9766L304.475 69.8039L304.172 70.097L303.868 69.8039V69.5107L302.351 68.6311V68.9243C302.047 68.9243 302.047 68.6311 301.744 68.6311V68.338L300.226 67.7516V68.0448C299.923 68.0448 299.923 68.0448 299.619 67.7516V67.4584L298.102 67.1652V67.4584C297.798 67.4584 297.798 67.4584 297.495 67.4584V67.1652H295.977V67.4584C295.674 67.4584 295.674 67.4584 295.37 67.4584V67.1652L293.853 67.4584V67.7516C293.549 67.7516 293.55 67.7516 293.246 68.0448V67.7516L291.729 68.338V68.6311C291.425 68.6311 291.425 68.9243 291.122 68.9243V68.6311L289.604 69.5107V69.8039C289.301 69.8039 289.301 70.097 289.301 70.097L288.997 69.8039L287.783 70.9766L288.087 71.2698L287.783 71.5629L287.48 71.2698L286.266 72.4425L286.569 72.7357L286.266 73.0288H285.962L285.052 74.4948H285.355C285.355 74.7879 285.052 74.7879 285.052 75.0811H284.748L284.141 76.547H284.445C284.445 76.8402 284.445 76.8402 284.141 77.1334H283.838L283.534 78.5993H283.838C283.838 78.8925 283.838 78.8925 283.838 79.1857H283.534V80.6516H283.838C283.838 80.9447 283.838 80.9447 283.838 81.2379H283.534L283.838 82.7038H284.141C284.141 82.997 284.141 82.997 284.445 83.2902H284.141L284.748 84.7561H285.052C285.052 85.0493 285.355 85.0493 285.355 85.3425H285.052L285.962 86.8084H286.266C286.266 87.1016 286.569 87.1016 286.569 87.1016L286.266 87.3947L287.48 88.5675L287.783 88.2743L288.087 88.5675L287.783 88.8606L288.997 90.0334L289.301 89.7402L289.604 90.0334V90.3266L291.122 91.2061V90.9129C291.425 90.9129 291.425 91.2061 291.729 91.2061V91.4993L293.246 92.0856V91.7925C293.55 91.7925 293.549 91.7925 293.853 92.0856V92.3788L295.37 92.672V92.3788C295.674 92.3788 295.674 92.3788 295.977 92.3788V92.672H297.495V92.3788C297.798 92.3788 297.798 92.3788 298.102 92.3788V92.672L299.619 92.3788V92.0856C299.923 92.0856 299.923 92.0856 300.226 91.7925V92.0856L301.744 91.4993V91.2061C302.047 91.2061 302.047 90.9129 302.351 90.9129V91.2061L303.868 90.3266V90.0334C304.172 90.0334 304.172 89.7402 304.172 89.7402L304.475 90.0334L305.689 88.8606L305.386 88.5675L305.689 88.2743L305.993 88.5675L307.207 87.3947L306.903 87.1016L307.207 86.8084H307.51L308.421 85.3425H308.117C308.117 85.0493 308.421 85.0493 308.421 84.7561H308.724L309.331 83.2902H309.028C309.028 82.997 309.028 82.997 309.331 82.7038H309.635L309.938 81.2379H309.635C309.635 80.9447 309.635 80.9447 309.635 80.6516H309.938ZM297.495 88.2743C292.639 88.2743 288.694 84.4629 288.694 79.772C288.694 75.0811 292.639 71.2698 297.495 71.2698C302.351 71.2698 306.296 75.0811 306.296 79.772C306.296 84.4629 302.351 88.2743 297.495 88.2743ZM304.475 79.772C304.475 83.5834 301.44 86.5152 297.495 86.5152C293.549 86.5152 290.515 83.5834 290.515 79.772C290.515 75.9607 293.549 73.0288 297.495 73.0288C301.137 73.0288 304.475 75.9607 304.475 79.772Z" fill="white"/>
<path d="M313.883 18.2035L312.973 17.6172C305.993 12.9263 299.316 10.5808 288.086 8.82171C283.837 8.23535 276.554 7.94217 276.554 7.94217L275.036 18.7899H313.58C313.883 18.4967 313.883 18.4967 313.883 18.2035ZM276.25 17.324L277.464 8.82171C279.589 8.82171 284.748 9.40808 287.783 9.70126C298.102 11.4603 304.475 13.5126 310.545 17.324H276.25Z" fill="white"/>
<path d="M45.2913 62.181H0.374268V0.612885H8.8721L45.2913 62.181Z" fill="white"/>
<path d="M268.056 56.6107H34.3662V63.3538H268.056V56.6107Z" fill="white"/>
<path d="M119.648 6.47659H116.613V58.6629H119.648V6.47659Z" fill="white"/>
<path d="M153.639 6.18329H150.604V58.3695H153.639V6.18329Z" fill="white"/>
<path d="M187.327 6.47659H184.292V58.6629H187.327V6.47659Z" fill="white"/>
<path d="M220.711 6.47659H217.676V58.6629H220.711V6.47659Z" fill="white"/>
<path d="M254.399 6.76962H251.364V58.9559H254.399V6.76962Z" fill="white"/>
<path d="M52.5757 6.47659H49.5408V58.6629H52.5757V6.47659Z" fill="white"/>
<path d="M85.9602 6.47659H82.9253V58.6629H85.9602V6.47659Z" fill="white"/>
<path d="M248.632 68.3382H241.349V82.9973H248.632V68.3382Z" fill="white"/>
<path d="M257.131 68.3382H249.847V82.9973H257.131V68.3382Z" fill="white"/>
<path d="M240.135 68.338H232.851V82.997H240.135V68.338Z" fill="white"/>
<path d="M262.593 68.3382H258.344V82.9973H262.593V68.3382Z" fill="white"/>
<path d="M333.307 48.1082L331.182 42.831V41.0719H332.093V37.5537H331.182V32.8628C331.182 32.5696 330.879 32.2765 330.575 32.2765V41.0719L326.326 30.8106H327.844L326.63 27.8787C326.326 27.2924 326.023 26.9992 325.416 26.9992H274.429L274.125 29.3447H321.774C322.381 29.3447 323.291 29.931 323.595 30.5174V30.8106H323.898C324.505 32.5696 326.023 35.7946 327.54 39.8992C329.361 44.8833 330.272 47.5219 330.575 48.6946C330.575 48.9878 330.879 49.281 331.486 49.281C332.396 49.281 333.61 49.281 334.217 49.281C333.914 48.6946 333.61 48.4014 333.307 48.1082Z" fill="white"/>
<path d="M321.775 30.5175C321.775 30.5175 321.472 30.2243 321.775 30.5175L320.865 30.2243C320.865 30.2243 320.561 30.2243 320.561 30.5175V31.1038C320.561 31.1038 320.561 31.397 320.865 31.397H321.775C321.775 31.397 322.079 31.397 322.079 31.1038H322.685V30.8107L321.775 30.5175Z" fill="white"/>
<path d="M329.059 48.4021H328.756C328.756 48.4021 328.756 48.1089 328.452 48.1089H327.238C327.238 48.1089 326.935 48.1089 326.935 48.4021V48.9885C326.935 48.9885 326.935 49.2817 327.238 49.2817H328.452C328.452 49.2817 328.756 49.2817 328.756 48.9885V48.6953L329.059 48.4021Z" fill="white"/>
<path d="M333.611 71.563H333.004V70.0971V68.6312H313.58C312.67 64.2335 308.724 61.0085 303.868 61.0085H273.519V66.2858H304.475C307.51 66.2858 309.938 68.338 310.545 71.2699L312.366 84.463H315.098H331.486L334.521 83.5835C334.825 83.5835 335.128 82.9971 335.128 82.7039V72.7358C334.521 71.8562 333.914 71.563 333.611 71.563ZM329.969 82.4107H314.187L313.884 78.8926H329.969V82.4107ZM329.969 77.1335H314.187L313.884 73.6153H329.969V77.1335Z" fill="white"/>
<path d="M221.015 80.6516V79.1857H220.711C220.711 78.8925 220.711 78.8925 220.711 78.5993H221.015L220.711 77.1334H220.408C220.408 76.8402 220.408 76.8402 220.104 76.547H220.408L219.801 75.0811H219.497C219.497 74.7879 219.194 74.7879 219.194 74.4948H219.497L218.587 73.0288H218.283C218.283 72.7357 217.98 72.7357 217.98 72.7357L218.283 72.4425L217.069 71.2698L216.766 71.5629L216.462 71.2698L216.766 70.9766L215.552 69.8039L215.248 70.097L214.945 69.8039V69.5107L213.427 68.6311V68.9243C213.124 68.9243 213.124 68.6311 212.82 68.6311V68.338L211.303 67.7516V68.0448C210.999 68.0448 210.999 68.0448 210.696 67.7516V67.4584L209.179 67.1652V67.4584C208.875 67.4584 208.875 67.4584 208.572 67.4584V67.1652H207.054V67.4584C206.751 67.4584 206.751 67.4584 206.447 67.4584V67.1652L204.93 67.4584V67.7516C204.626 67.7516 204.626 67.7516 204.323 68.0448V67.7516L202.805 68.338V68.6311C202.502 68.6311 202.502 68.9243 202.198 68.9243V68.6311L200.681 69.5107V69.8039C200.377 69.8039 200.377 70.097 200.377 70.097L200.074 69.8039L198.86 70.9766L199.163 71.2698L198.86 71.5629L198.556 71.2698L197.342 72.4425L197.646 72.7357L197.342 73.0288H197.039L196.128 74.4948H196.432C196.432 74.7879 196.128 74.7879 196.128 75.0811H195.825L195.218 76.547H195.521C195.521 76.8402 195.521 76.8402 195.218 77.1334H194.914L194.611 78.5993H194.914C194.914 78.8925 194.914 78.8925 194.914 79.1857H194.611V80.6516H194.914C194.914 80.9447 194.914 80.9447 194.914 81.2379H194.611L194.914 82.7038H195.218C195.218 82.997 195.218 82.997 195.521 83.2902H195.218L195.825 84.7561H196.128C196.128 85.0493 196.432 85.0493 196.432 85.3425H196.128L197.039 86.8084H197.342C197.342 87.1016 197.646 87.1016 197.646 87.1016L197.342 87.3947L198.556 88.5675L198.86 88.2743L199.163 88.5675L198.86 88.8606L200.074 90.0334L200.377 89.7402L200.681 90.0334V90.3266L202.198 91.2061V90.9129C202.502 90.9129 202.502 91.2061 202.805 91.2061V91.4993L204.323 92.0856V91.7925C204.626 91.7925 204.626 91.7925 204.93 92.0856V92.3788L206.447 92.672V92.3788C206.751 92.3788 206.751 92.3788 207.054 92.3788V92.672H208.572V92.3788C208.875 92.3788 208.875 92.3788 209.179 92.3788V92.672L210.696 92.3788V92.0856C210.999 92.0856 210.999 92.0856 211.303 91.7925V92.0856L212.82 91.4993V91.2061C213.124 91.2061 213.124 90.9129 213.427 90.9129V91.2061L214.945 90.3266V90.0334C215.248 90.0334 215.248 89.7402 215.248 89.7402L215.552 90.0334L216.766 88.8606L216.462 88.5675L216.766 88.2743L217.069 88.5675L218.283 87.3947L217.98 87.1016L218.283 86.8084H218.587L219.497 85.3425H219.194C219.194 85.0493 219.497 85.0493 219.497 84.7561H219.801L220.408 83.2902H220.104C220.104 82.997 220.104 82.997 220.408 82.7038H220.711L221.015 81.2379H220.711C220.711 80.9447 220.711 80.9447 220.711 80.6516H221.015ZM208.572 88.2743C203.716 88.2743 199.77 84.4629 199.77 79.772C199.77 75.0811 203.716 71.2698 208.572 71.2698C213.427 71.2698 217.373 75.0811 217.373 79.772C217.373 84.4629 213.427 88.2743 208.572 88.2743ZM215.552 79.772C215.552 83.5834 212.517 86.5152 208.572 86.5152C204.626 86.5152 201.591 83.5834 201.591 79.772C201.591 75.9607 204.626 73.0288 208.572 73.0288C212.517 73.0288 215.552 75.9607 215.552 79.772Z" fill="white"/>
<path d="M101.437 80.6516V79.1857H101.134C101.134 78.8925 101.134 78.8925 101.134 78.5993H101.437L101.134 77.1334H100.83C100.83 76.8402 100.83 76.8402 100.527 76.547H100.83L100.223 75.0811H99.9198C99.9198 74.7879 99.6164 74.7879 99.6164 74.4948H99.9198L99.0093 73.0288H98.7059C98.7059 72.7357 98.4024 72.7357 98.4024 72.7357L98.7059 72.4425L97.4919 71.2698L97.1884 71.5629L96.8849 71.2698L97.1884 70.9766L95.9744 69.8039L95.6709 70.097L95.3674 69.8039V69.5107L93.85 68.6311V68.9243C93.5465 68.9243 93.5465 68.6311 93.243 68.6311V68.338L91.7255 67.7516V68.0448C91.422 68.0448 91.422 68.0448 91.1185 67.7516V67.4584L89.6011 67.1652V67.4584C89.2976 67.4584 89.2976 67.4584 88.9941 67.4584V67.1652H87.4766V67.4584C87.1731 67.4584 87.1731 67.4584 86.8696 67.4584V67.1652L85.6556 67.7516V68.0448C85.3521 68.0448 85.3521 68.0448 85.0487 68.338V68.0448L83.5312 68.6311V68.9243C83.2277 68.9243 83.2277 69.2175 82.9242 69.2175V68.9243L81.4067 69.8039V70.097C81.1032 70.097 81.1032 70.3902 81.1032 70.3902L80.7997 70.097L79.5858 71.2698L79.8893 71.5629L79.5858 71.8561L79.2823 71.5629L78.0683 72.7357L78.3718 73.0288L78.0683 73.322H77.7648L77.4613 74.2016H77.7648C77.7648 74.4948 77.4613 74.4948 77.4613 74.7879H77.1578L76.5508 76.2538H76.8543C76.8543 76.547 76.8543 76.547 76.5508 76.8402H76.2473L75.9438 78.3061H76.2473C76.2473 78.5993 76.2473 78.5993 76.2473 78.8925H75.9438V80.3584H76.2473C76.2473 80.6516 76.2473 80.6516 76.2473 80.9447H75.9438L76.2473 82.4107H76.5508C76.5508 82.7038 76.5508 82.7038 76.8543 82.997H76.5508L77.1578 84.4629H77.4613C77.4613 84.7561 77.7648 84.7561 77.7648 85.0493L77.4613 85.3425L78.3718 86.8084H78.6753C78.6753 87.1016 78.9788 87.1016 78.9788 87.1016L78.6753 87.3947L79.8893 88.5675L80.1928 88.2743L80.4963 88.5675L80.1928 88.8606L81.4067 90.0334L81.7102 89.7402L82.0137 90.0334V90.3266L83.5312 91.2061V90.9129C83.8347 90.9129 83.8347 91.2061 84.1382 91.2061V91.4993L85.6556 92.0856V91.7925C85.9591 91.7925 85.9591 91.7925 86.2626 92.0856V92.3788L87.7801 92.672V92.3788C88.0836 92.3788 88.0836 92.3788 88.3871 92.3788V92.672H89.6011V92.3788C89.9045 92.3788 89.9045 92.3788 90.208 92.3788V92.672L91.7255 92.3788V92.0856C92.029 92.0856 92.029 92.0856 92.3325 91.7925V92.0856L93.85 91.4993V91.2061C94.1535 91.2061 94.1535 90.9129 94.4569 90.9129V91.2061L95.9744 90.3266V90.0334C96.2779 90.0334 96.2779 89.7402 96.2779 89.7402L96.5814 90.0334L97.7954 88.8606L97.4919 88.5675L97.7954 88.2743L98.0989 88.5675L99.3128 87.3947L98.7059 86.8084L99.0093 86.5152H99.3128L100.223 85.0493H99.9198C99.9198 84.7561 100.223 84.7561 100.223 84.4629H100.527L101.134 82.997H100.83C100.83 82.7038 100.83 82.7038 101.134 82.4107H101.437L101.741 80.9447H101.437C101.437 80.6516 101.437 80.6516 101.437 80.3584V80.6516ZM88.6906 88.2743C83.8347 88.2743 79.8893 84.4629 79.8893 79.772C79.8893 75.0811 83.8347 71.2698 88.6906 71.2698C93.5465 71.2698 97.4919 75.0811 97.4919 79.772C97.4919 84.4629 93.5465 88.2743 88.6906 88.2743ZM95.9744 79.772C95.9744 83.5834 92.9395 86.5152 88.9941 86.5152C85.0487 86.5152 82.0137 83.5834 82.0137 79.772C82.0137 75.9607 85.0487 73.0288 88.9941 73.0288C92.636 73.0288 95.9744 75.9607 95.9744 79.772Z" fill="white"/>
<path d="M71.6959 80.9446V79.4787H71.3924C71.3924 79.1855 71.3924 79.1855 71.3924 78.8923H71.6959L71.3924 77.1332H71.0889C71.0889 76.8401 71.0889 76.8401 70.7854 76.5469H71.0889L70.4819 75.081H70.1784C70.1784 74.7878 69.8749 74.7878 69.8749 74.4946H70.1784L69.2679 73.0287H68.9644C68.9644 72.7355 68.6609 72.7355 68.6609 72.7355L68.9644 72.4423L67.7504 71.2696L67.4469 71.5628L67.1434 71.2696L67.4469 70.9764L66.233 69.8037L65.9295 70.0969L65.626 69.8037V69.5105L64.1085 68.631V68.9242C63.805 68.9242 63.805 68.631 63.5015 68.631V68.3378L61.9841 67.7514V68.0446C61.6806 68.0446 61.6806 68.0446 61.3771 67.7514V67.4583L60.4666 67.7514V68.0446C60.1631 68.0446 60.1631 68.0446 59.8596 68.0446V67.7514H58.3421V68.0446C58.0386 68.0446 58.0386 68.0446 57.7351 68.0446V67.7514L56.2177 68.0446V68.3378C55.9142 68.3378 55.9142 68.3378 55.6107 68.631V68.3378L54.0932 68.9242V69.2173C53.7897 69.2173 53.7897 69.5105 53.4862 69.5105V69.2173L51.9688 70.0969V70.3901C51.6653 70.3901 51.6653 70.6832 51.6653 70.6832L51.3618 70.3901L50.1478 71.2696L50.4513 71.5628L50.1478 71.856L49.8443 71.5628L48.6303 72.7355L48.9338 73.0287L48.6303 73.3219H48.3269L47.4164 74.7878H47.7199C47.7199 75.081 47.4164 75.081 47.4164 75.3741H47.1129L46.8094 76.5469H47.1129C47.1129 76.8401 47.1129 76.8401 46.8094 77.1332H46.5059L46.2024 78.5991H46.5059C46.5059 78.8923 46.5059 78.8923 46.5059 79.1855H46.2024V80.6514H46.5059C46.5059 80.9446 46.5059 80.9446 46.5059 81.2378H46.2024L46.5059 82.7037H46.8094C46.8094 82.9969 46.8094 82.9969 47.1129 83.29H46.8094L47.4164 84.7559H47.7199C47.7199 85.0491 48.0233 85.0491 48.0233 85.3423H47.7199L48.6303 86.8082H48.9338L49.2373 87.1014L48.9338 87.3946L50.1478 88.5673L50.4513 88.2741L50.7548 88.5673L50.1478 88.8605L51.3618 90.0332L51.6653 89.74L51.9688 90.0332V90.3264L53.1827 91.2059V90.9128C53.4862 90.9128 53.4862 91.2059 53.7897 91.2059V91.4991L55.3072 92.0855V91.7923C55.6107 91.7923 55.6107 91.7923 55.9142 92.0855V92.3787L57.4317 92.6718V92.3787C57.7352 92.3787 57.7351 92.3787 58.0386 92.3787V92.6718H59.5561V92.3787C59.8596 92.3787 59.8596 92.3787 60.1631 92.3787V92.6718L61.6806 92.3787V92.0855C61.9841 92.0855 61.9841 92.0855 62.2876 91.7923V92.0855L63.805 91.4991V91.2059C64.1085 91.2059 64.1085 90.9128 64.412 90.9128V91.2059L65.9295 90.3264V90.0332L66.233 89.74L66.5365 90.0332L67.7504 88.8605L67.4469 88.5673L67.7504 88.2741L68.0539 88.5673L69.2679 87.3946L68.9644 87.1014L69.2679 86.8082H69.5714L70.4819 85.3423H70.1784C70.1784 85.0491 70.4819 85.0491 70.4819 84.7559H70.7854L71.3924 83.29H71.0889C71.0889 82.9969 71.0889 82.9969 71.3924 82.7037H71.6959L71.9994 81.2378H71.6959C71.6959 80.9446 71.6959 80.9446 71.6959 80.6514V80.9446ZM58.9491 88.5673C54.0932 88.5673 50.1478 84.7559 50.1478 80.065C50.1478 75.3741 54.0932 71.5628 58.9491 71.5628C63.805 71.5628 67.7504 75.3741 67.7504 80.065C67.7504 84.7559 63.805 88.5673 58.9491 88.5673ZM65.9295 80.065C65.9295 83.8764 62.8945 86.8082 58.9491 86.8082C55.0037 86.8082 51.9688 83.8764 51.9688 80.065C51.9688 76.2537 55.0037 73.3219 58.9491 73.3219C62.8945 73.3219 65.9295 76.2537 65.9295 80.065Z" fill="white"/>
<path d="M41.9529 80.9448V79.4789H41.6494C41.6494 79.1857 41.6494 79.1857 41.6494 78.8925H41.9529L41.6494 77.4266H41.3459C41.3459 77.1334 41.3459 77.1334 41.0424 76.8402H41.3459L40.739 75.3743H40.4355C40.4355 75.0812 40.132 75.0812 40.132 74.788H40.4355L39.525 73.3221H39.2215C39.2215 73.0289 38.918 73.0289 38.918 73.0289L39.2215 72.7357L38.0075 71.563V71.8562L37.704 71.563L38.0075 71.2698L36.7935 70.0971L36.49 70.3902L36.1866 70.0971V69.8039L34.6691 68.9243V69.2175C34.3656 69.2175 34.3656 68.9243 34.0621 68.9243V68.6312L32.5446 68.0448V68.338C32.2411 68.338 32.2411 68.338 31.9376 68.0448V67.7516H30.4202V68.0448C30.1167 68.0448 30.1167 68.0448 29.8132 68.0448V67.7516H28.2957V68.0448C27.9922 68.0448 27.9922 68.0448 27.6887 68.0448V67.7516L26.1713 68.0448V68.338C25.8678 68.338 25.8678 68.338 25.5643 68.6312V68.338L24.0468 68.9243V69.2175C23.7433 69.2175 23.7433 69.5107 23.4398 69.5107V69.2175L21.9224 70.0971V70.3902C21.6189 70.3902 21.6189 70.6834 21.6189 70.6834L21.3154 70.3902L20.1014 71.563L20.4049 71.8562L20.1014 72.1493L19.7979 71.8562L18.5839 73.0289L18.8874 73.3221L18.5839 73.6152H18.2804L17.37 75.0812H17.6734C17.6734 75.3743 17.37 75.3743 17.37 75.6675H17.0665V76.5471H17.37C17.37 76.8402 17.3699 76.8402 17.0665 77.1334H16.763L16.4595 78.5993H16.763C16.763 78.8925 16.763 78.8925 16.763 79.1857H16.4595V80.6516H16.763C16.763 80.9448 16.763 80.9448 16.763 81.238H16.4595L16.763 82.7039H17.0665C17.0665 82.9971 17.0665 82.997 17.37 83.2902H17.0665L17.6734 84.7561H17.9769C17.9769 85.0493 18.2804 85.0493 18.2804 85.3425H17.9769L18.8874 86.8084H19.1909L19.4944 87.1016L19.1909 87.3948L20.4049 88.5675L20.7084 88.2743L21.0119 88.5675L20.7084 88.8607L21.9224 90.0334L22.2258 89.7402L22.5293 90.0334V90.3266L24.0468 91.2061V90.9129C24.3503 90.9129 24.3503 91.2061 24.6538 91.2061V91.4993L26.1713 92.0857V91.7925C26.4747 91.7925 26.4748 91.7925 26.7782 92.0857V92.3789L28.2957 92.672V92.3789C28.5992 92.3789 28.5992 92.3789 28.9027 92.3789V92.672H30.4202V92.3789C30.7237 92.3789 30.7237 92.3789 31.0272 92.3789V92.672L32.5446 92.3789V92.0857C32.8481 92.0857 32.8481 92.0857 33.1516 91.7925V92.0857L34.6691 91.4993V91.2061C34.9726 91.2061 34.9726 90.9129 35.2761 90.9129V91.2061L36.7935 90.3266V90.0334C37.097 90.0334 37.097 89.7402 37.097 89.7402L37.4005 90.0334L38.6145 88.8607L38.311 88.5675L38.6145 88.2743L38.918 88.5675L40.132 87.3948L39.8285 87.1016L40.132 86.8084H40.4355L41.3459 85.3425H41.0424C41.0424 85.0493 41.3459 85.0493 41.3459 84.7561H41.6494L42.2564 83.2902H41.9529C41.9529 82.997 41.9529 82.9971 42.2564 82.7039H42.5599L42.8634 81.238H42.5599C42.5599 80.9448 42.5599 80.9448 42.5599 80.6516L41.9529 80.9448ZM29.2062 88.5675C24.3503 88.5675 20.4049 84.7561 20.4049 80.0652C20.4049 75.3743 24.3503 71.563 29.2062 71.563C34.0621 71.563 38.0075 75.3743 38.0075 80.0652C38.0075 84.7561 34.0621 88.5675 29.2062 88.5675ZM36.1866 80.0652C36.1866 83.8766 33.1516 86.8084 29.2062 86.8084C25.2608 86.8084 22.2258 83.8766 22.2258 80.0652C22.2258 76.2539 25.2608 73.3221 29.2062 73.3221C33.1516 73.3221 36.1866 76.2539 36.1866 80.0652Z" fill="white"/>
<path d="M231.941 70.6829H227.085V82.7033H231.941V70.6829Z" fill="white"/>
</svg>
