<svg width="203" height="46" viewBox="0 0 203 46" fill="none" xmlns="http://www.w3.org/2000/svg">
<g clip-path="url(#clip0_36_1545)">
<path d="M110.942 9H111.729V36.5918H110.942V9Z" fill="#00274F"/>
<path d="M57.9667 9.02756L45.0743 10.7124V14.5349L57.9667 13.3854V9.02756Z" fill="#E4003A"/>
<path d="M18.5769 22.9474C18.5769 25.2661 19.2658 26.0731 21.4821 26.0731C23.6985 26.0731 24.3795 25.2858 24.3795 22.9474C24.3795 20.6091 23.7103 19.8218 21.4821 19.8218C19.254 19.8218 18.5769 20.617 18.5769 22.9474ZM14.6836 22.912C14.6836 18.6605 17.0456 16.7197 21.4821 16.7197C25.9187 16.7197 28.2964 18.6605 28.2964 22.912C28.2964 27.1636 25.9345 29.1752 21.4821 29.1752C17.0298 29.1752 14.6836 27.1636 14.6836 22.912V22.912Z" fill="#00274F"/>
<path d="M55.526 17.7865L45.0743 10.7006V14.5191L48.3338 16.7276L48.9755 17.1016C48.1684 17.0623 47.3683 17.2681 46.6804 17.6921C45.0703 18.6644 44.2358 20.3729 44.2358 22.9002C44.2358 27.1518 46.5977 29.1634 51.0383 29.1634C55.4788 29.1634 57.8683 27.1636 57.8683 22.912C57.8683 20.4556 57.0534 18.7707 55.526 17.7865ZM51.0383 26.0534C48.8219 26.0534 48.1291 25.2661 48.1291 22.9278C48.1291 20.5894 48.8219 19.8021 51.0383 19.8021C53.2546 19.8021 53.9317 20.5894 53.9317 22.9278C53.9317 25.2661 53.2664 26.0731 51.0383 26.0731V26.0534Z" fill="#00274F"/>
<path d="M7.97559 16.6961C6.3743 16.7253 4.8498 17.3877 3.73585 18.5384V16.9638H0V32.9504H3.71223V27.2699C4.83192 28.4173 6.36074 29.0741 7.96378 29.0964C11.4792 29.0964 13.4081 27.1872 13.4081 22.8923C13.4081 18.5975 11.4792 16.6961 7.97559 16.6961ZM6.64501 25.9983C4.4287 25.9983 3.73585 25.211 3.73585 22.8726C3.73585 20.5343 4.4287 19.747 6.64501 19.747C8.86133 19.747 9.53843 20.5343 9.53843 22.8726C9.53843 25.211 8.87314 25.9983 6.64501 25.9983Z" fill="#00274F"/>
<path d="M83.3894 16.9874V21.3216H78.4647V16.9874H74.7289V28.7185H78.4647V24.3253H83.3894V28.7185H87.1253V16.9874H83.3894Z" fill="#00274F"/>
<path d="M59.1359 22.8923C59.1359 27.1872 61.0688 29.0964 64.5803 29.0964C66.1835 29.0749 67.7126 28.418 68.8318 27.2699V28.7225H72.5441V16.9717H68.8082V18.5463C68.2567 17.9736 67.5976 17.5154 66.8688 17.1979C66.1399 16.8804 65.3555 16.7099 64.5606 16.6961C61.0688 16.6961 59.1359 18.6054 59.1359 22.8923ZM63.0056 22.8923C63.0056 20.5619 63.6709 19.7667 65.899 19.7667C68.1272 19.7667 68.8082 20.554 68.8082 22.8923C68.8082 25.2307 68.1154 26.018 65.899 26.018C63.6827 26.018 63.0056 25.1913 63.0056 22.8726V22.8923Z" fill="#00274F"/>
<path d="M39.134 24.3843C38.8466 25.6086 38.0553 26.0731 36.3783 26.0731C34.162 26.0731 33.4731 25.2858 33.4731 22.9474C33.4731 20.6091 34.162 19.8218 36.3783 19.8218C38.0671 19.8218 38.8584 20.2784 39.134 21.5106L43.0312 21.2153C42.4486 18.1448 40.1732 16.7197 36.3704 16.7197C31.926 16.7197 29.5719 18.6605 29.5719 22.912C29.5719 27.1636 31.9142 29.1752 36.3704 29.1752C40.1653 29.1752 42.421 27.7186 43.0194 24.6796L39.134 24.3843Z" fill="#00274F"/>
<path d="M102.935 28.7185L97.022 22.5577L102.62 16.9874H97.9983L92.983 22.0814V16.9874H89.3141V28.7185H92.983V24.6166V23.6009V23.3175L98.1321 28.7185H102.935Z" fill="#00274F"/>
<path d="M122.346 23.6639C122.063 26.2463 121.736 27.0494 120.252 27.0494H119.744V28.8602H120.437C123.094 28.8602 123.775 27.073 124.11 23.782L124.626 18.7589H129.798V28.7185H131.727V16.9716H123.047L122.346 23.6639Z" fill="#00274F"/>
<path d="M135.329 16.9716V28.7185H137.14L144.309 19.7627V28.7185H146.234V16.9716H144.427L137.258 25.9078V16.9716H135.329Z" fill="#00274F"/>
<path d="M173.424 16.9716H171.613L164.448 25.9078V16.9716H162.519V28.7185H164.33L171.495 19.7627V28.7185H173.424V16.9716Z" fill="#00274F"/>
<path d="M185.769 21.8688H178.955V16.9716H177.026V28.7185H178.955V23.656H185.769V28.7185H187.698V16.9716H185.769V21.8688Z" fill="#00274F"/>
<path d="M191.276 16.9716V28.7185H193.205V18.7589H200V16.9716H191.276Z" fill="#00274F"/>
<path d="M157.764 22.6483C158.239 22.4232 158.639 22.0672 158.918 21.6223C159.197 21.1773 159.343 20.6619 159.339 20.1367C159.339 17.9794 157.477 16.637 154.473 16.637C152.847 16.637 151.65 16.9953 150.816 17.5661C149.892 18.2125 149.221 19.1582 148.915 20.243L150.883 20.4162V20.4359C151.111 19.7552 151.595 19.1902 152.233 18.8612C152.93 18.5554 153.69 18.4204 154.449 18.4676C155.563 18.4676 157.425 18.692 157.425 20.1957C157.425 21.3098 156.591 21.8531 154.875 21.8531H152.812V23.6245H154.851C157.433 23.6245 157.733 24.5851 157.733 25.3055C157.733 26.8801 155.973 27.2226 154.497 27.2226C151.741 27.2226 151.123 25.9747 150.879 25.2543L148.887 25.4275C149.466 27.3722 151.064 29.0335 154.497 29.0335C157.717 29.0335 159.717 27.5927 159.717 25.274C159.711 24.6861 159.519 24.1151 159.168 23.6433C158.817 23.1715 158.325 22.8231 157.764 22.6483V22.6483Z" fill="#00274F"/>
</g>
<defs>
<clipPath id="clip0_36_1545">
<rect width="200" height="27.5918" fill="white" transform="translate(0 9)"/>
</clipPath>
</defs>
</svg>
