<svg xmlns="http://www.w3.org/2000/svg" width="65" height="64" viewBox="0 0 65 64" fill="none">
<g filter="url(#filter0_b_208_4154)">
<rect x="0.5" width="64" height="64" rx="8" fill="#F4371C" fill-opacity="0.1"/>
<path d="M42.5132 23.8L34.5932 19.2266C33.2998 18.48 31.6998 18.48 30.3932 19.2266L22.4865 23.8C21.1932 24.5466 20.3932 25.9333 20.3932 27.44V36.56C20.3932 38.0533 21.1932 39.44 22.4865 40.2L30.4065 44.7733C31.6998 45.52 33.2998 45.52 34.6065 44.7733L42.5265 40.2C43.8198 39.4533 44.6198 38.0666 44.6198 36.56V27.44C44.6065 25.9333 43.8065 24.56 42.5132 23.8ZM31.4998 26.3333C31.4998 25.7866 31.9532 25.3333 32.4998 25.3333C33.0465 25.3333 33.4998 25.7866 33.4998 26.3333V33.3333C33.4998 33.88 33.0465 34.3333 32.4998 34.3333C31.9532 34.3333 31.4998 33.88 31.4998 33.3333V26.3333ZM33.7265 38.1733C33.6598 38.3333 33.5665 38.48 33.4465 38.6133C33.1932 38.8666 32.8598 39 32.4998 39C32.3265 39 32.1532 38.96 31.9932 38.8933C31.8198 38.8266 31.6865 38.7333 31.5532 38.6133C31.4332 38.48 31.3398 38.3333 31.2598 38.1733C31.1932 38.0133 31.1665 37.84 31.1665 37.6666C31.1665 37.32 31.2998 36.9733 31.5532 36.72C31.6865 36.6 31.8198 36.5066 31.9932 36.44C32.4865 36.2266 33.0732 36.3466 33.4465 36.72C33.5665 36.8533 33.6598 36.9866 33.7265 37.16C33.7932 37.32 33.8332 37.4933 33.8332 37.6666C33.8332 37.84 33.7932 38.0133 33.7265 38.1733Z" fill="#F4371C"/>
</g>
<defs>
<filter id="filter0_b_208_4154" x="-16.5" y="-17" width="98" height="98" filterUnits="userSpaceOnUse" color-interpolation-filters="sRGB">
<feFlood flood-opacity="0" result="BackgroundImageFix"/>
<feGaussianBlur in="BackgroundImageFix" stdDeviation="8.5"/>
<feComposite in2="SourceAlpha" operator="in" result="effect1_backgroundBlur_208_4154"/>
<feBlend mode="normal" in="SourceGraphic" in2="effect1_backgroundBlur_208_4154" result="shape"/>
</filter>
</defs>
</svg>